<svg width="176" height="40" viewBox="0 0 176 40" fill="none" xmlns="http://www.w3.org/2000/svg">
<path d="M26.1302 33.7989C21.0775 33.4599 15.1832 31.5457 11.2359 27.8401C10.7466 26.5741 10.5192 25.2221 10.5674 23.8658C10.6156 22.5094 10.9384 21.1769 11.5163 19.9489C13.6266 15.476 18.2148 14.3018 22.7613 15.7354C17.4761 24.6266 27.6812 32.621 34.7993 25.5502C43.4017 27.7562 48.397 22.3688 47.9803 14.4382C49.3046 16.1307 50.3702 18.0104 51.1424 20.0158C48.6527 24.399 44.9978 28.007 40.5829 30.4398C36.168 32.8727 31.1655 34.0354 26.1302 33.7989Z" fill="#EA7600"/>
<path d="M35.8647 24.2519C41.3087 15.2513 31.155 7.19015 23.7778 14.3503C14.9589 11.5052 8.57699 17.0197 9.01931 25.6725C7.61367 24.0764 6.43566 22.2935 5.5188 20.3744C14.6665 4.35455 35.7942 2.19096 46.1212 12.4073C48.2114 20.1239 43.6743 26.1045 35.8647 24.2519Z" fill="#A5C8BE"/>
<path d="M64.2039 10.4546H61.3281V9.47495H68.2082V10.4546H65.3328V17.0792H64.2039L64.2039 10.4546Z" fill="#323282"/>
<path d="M68.8684 9.41086H69.9337V12.3397H69.9547C70.2017 11.997 70.5315 11.7224 70.9134 11.5418C71.2953 11.3612 71.7167 11.2804 72.1383 11.3069C73.4802 11.3069 74.4813 11.882 74.4813 13.2769V17.0792H73.4161V13.4901C73.4161 12.6698 72.9051 12.2015 71.7653 12.2015C71.5334 12.1785 71.2993 12.2044 71.0781 12.2774C70.8568 12.3505 70.6533 12.4691 70.4808 12.6256C70.3082 12.7821 70.1703 12.9731 70.0761 13.1862C69.9819 13.3993 69.9334 13.6298 69.9337 13.8628V17.0792H68.8684L68.8684 9.41086Z" fill="#323282"/>
<path d="M76.6644 14.6085C76.717 15.1098 76.9591 15.572 77.3412 15.9006C77.7233 16.2292 78.2165 16.3995 78.72 16.3765C79.0836 16.4029 79.4471 16.3234 79.7664 16.1476C80.0858 15.9718 80.3474 15.7072 80.5196 15.3858H81.6484C81.4186 15.9558 81.02 16.4418 80.506 16.7788C79.9921 17.1157 79.3874 17.2875 78.7731 17.271C76.6004 17.271 75.5352 15.8972 75.5352 14.289C75.5352 12.6808 76.6004 11.3069 78.7731 11.3069C79.1883 11.2839 79.6036 11.3511 79.9904 11.5039C80.3771 11.6567 80.7262 11.8914 81.0136 12.1919C81.3011 12.4925 81.5199 12.8517 81.6553 13.245C81.7906 13.6382 81.8392 14.056 81.7976 14.4698V14.6085H76.6644ZM80.6688 13.7777C80.6036 13.3171 80.3663 12.8984 80.0046 12.6059C79.643 12.3134 79.1839 12.1689 78.72 12.2015C78.2485 12.1724 77.7826 12.3165 77.4099 12.6067C77.0372 12.897 76.7833 13.3134 76.6961 13.7777H80.6688Z" fill="#323282"/>
<path d="M86.5156 9.47495H93.3105V10.9234H88.5816V12.5847H93.0121V14.0331H88.5816V17.0792H86.5156L86.5156 9.47495Z" fill="#323282"/>
<path d="M94.1196 11.3706H95.9302V12.489H95.9516C96.1833 12.0932 96.517 11.7667 96.9179 11.5438C97.3187 11.3208 97.7721 11.2095 98.2306 11.2214C98.4591 11.218 98.6874 11.2359 98.9126 11.2749V13.032C98.5775 12.9281 98.2297 12.8707 97.879 12.8617C96.6008 12.8617 95.9942 13.5113 95.9942 14.619V17.0792H94.1196V11.3706Z" fill="#323282"/>
<path d="M106.655 15.3753C106.112 16.7277 104.813 17.2921 103.098 17.2921C100.84 17.2921 99.3274 16.3765 99.3274 14.2249C99.3274 12.0737 100.84 11.1577 103.098 11.1577C105.569 11.1577 106.762 12.4038 106.762 14.555V14.7253H101.266V14.7468C101.266 15.2901 101.82 16.1206 103.098 16.1206C103.401 16.1547 103.707 16.1029 103.982 15.9711C104.257 15.8394 104.489 15.6329 104.652 15.3753H106.655ZM104.824 13.6179V13.5964C104.747 13.199 104.521 12.8461 104.192 12.6104C103.863 12.3746 103.456 12.274 103.056 12.3292C102.654 12.2836 102.249 12.3875 101.919 12.6213C101.589 12.855 101.356 13.2021 101.266 13.5964V13.6179H104.824Z" fill="#323282"/>
<path d="M112.917 16.3656H112.896C112.618 16.6856 112.269 16.9361 111.877 17.097C111.485 17.2579 111.061 17.3247 110.638 17.2922C108.859 17.2922 107.454 16.2804 107.454 14.289C107.445 13.8737 107.522 13.461 107.68 13.0769C107.838 12.6928 108.075 12.3457 108.374 12.0575C108.673 11.7693 109.029 11.5462 109.419 11.4023C109.808 11.2584 110.224 11.1968 110.638 11.2214C111.045 11.1831 111.455 11.2402 111.836 11.3882C112.217 11.5361 112.558 11.7709 112.832 12.0738H112.853V9.3472H114.727V17.0792H112.917V16.3656ZM111.16 15.9077C111.482 15.8857 111.79 15.7701 112.047 15.5752C112.304 15.3803 112.498 15.1146 112.606 14.8108C112.714 14.5069 112.731 14.1782 112.654 13.8649C112.578 13.5517 112.412 13.2676 112.176 13.0475C111.94 12.8275 111.646 12.681 111.328 12.6263C111.01 12.5715 110.683 12.6108 110.388 12.7393C110.092 12.8678 109.84 13.0799 109.663 13.3495C109.486 13.6191 109.392 13.9345 109.392 14.257C109.387 14.4853 109.43 14.7122 109.519 14.9227C109.607 15.1332 109.739 15.3227 109.906 15.4785C110.073 15.6344 110.271 15.7532 110.487 15.8272C110.703 15.9012 110.933 15.9286 111.16 15.9077Z" fill="#323282"/>
<path d="M120.031 9.47495H122.098V12.3292H126.379V9.47495H128.445V17.0792H126.379V13.7777H122.098V17.0792H120.031V9.47495Z" fill="#323282"/>
<path d="M133.312 11.1577C135.57 11.1577 137.082 12.0737 137.082 14.2249C137.082 16.3765 135.57 17.2921 133.312 17.2921C131.054 17.2921 129.542 16.3765 129.542 14.2249C129.542 12.0737 131.054 11.1577 133.312 11.1577ZM133.312 15.9714C133.552 16.0027 133.797 15.9798 134.028 15.9044C134.258 15.8289 134.469 15.7029 134.645 15.5355C134.82 15.3681 134.956 15.1635 135.043 14.9367C135.129 14.71 135.164 14.4668 135.144 14.2249C135.121 13.7542 134.919 13.3102 134.578 12.9851C134.237 12.6599 133.783 12.4785 133.312 12.4785C132.841 12.4785 132.388 12.6599 132.047 12.9851C131.706 13.3102 131.503 13.7542 131.481 14.2249C131.461 14.4667 131.495 14.7098 131.582 14.9366C131.668 15.1633 131.804 15.3678 131.979 15.5352C132.155 15.7026 132.366 15.8287 132.596 15.9042C132.827 15.9796 133.071 16.0026 133.312 15.9714Z" fill="#323282"/>
<path d="M138.094 9.3472H139.969V17.0792H138.094V9.3472Z" fill="#323282"/>
<path d="M141.246 9.3472H143.121V17.0792H141.246V9.3472Z" fill="#323282"/>
<path d="M147.902 11.1577C150.16 11.1577 151.673 12.0737 151.673 14.2249C151.673 16.3765 150.16 17.2921 147.902 17.2921C145.645 17.2921 144.132 16.3765 144.132 14.2249C144.132 12.0737 145.645 11.1577 147.902 11.1577ZM147.902 15.9714C148.143 16.0027 148.388 15.9798 148.618 15.9044C148.849 15.8289 149.06 15.7029 149.235 15.5355C149.411 15.368 149.547 15.1635 149.633 14.9367C149.72 14.71 149.754 14.4668 149.734 14.2249C149.712 13.7543 149.509 13.3103 149.168 12.9851C148.827 12.6599 148.374 12.4785 147.903 12.4785C147.432 12.4785 146.978 12.6599 146.637 12.9851C146.296 13.3103 146.094 13.7543 146.071 14.2249C146.051 14.4667 146.086 14.7099 146.172 14.9366C146.258 15.1634 146.394 15.368 146.57 15.5354C146.745 15.7028 146.956 15.8289 147.187 15.9043C147.417 15.9798 147.662 16.0027 147.902 15.9714Z" fill="#323282"/>
<path d="M152.045 11.3706H154.112L155.422 15.2687H155.443L156.763 11.3706H158.574L159.894 15.2687H159.915L161.226 11.3706H163.292L161.162 17.0792H158.915L157.68 13.3941H157.658L156.423 17.0792H154.176L152.045 11.3706Z" fill="#323282"/>
<path d="M165.667 15.3113C165.752 15.8011 166.093 16.1206 167.063 16.1206C167.914 16.1206 168.415 15.9183 168.415 15.503C168.415 15.1835 168.255 15.0557 167.35 14.9281L165.646 14.6937C164.453 14.5339 163.771 14.1609 163.771 13.0745C163.771 11.5304 165.337 11.1577 166.892 11.1577C169.523 11.1577 170.14 12.0202 170.268 13.0855H168.202C168.095 12.4995 167.477 12.3292 166.934 12.3292C166.445 12.3292 165.709 12.3718 165.709 12.9362C165.709 13.2026 165.849 13.3835 166.658 13.4687L167.957 13.6073C169.863 13.8097 170.481 14.3741 170.481 15.3644C170.481 17.0577 168.585 17.2921 166.956 17.2921C164.794 17.2921 163.697 16.664 163.601 15.3113H165.667Z" fill="#323282"/>
<path d="M62.1375 22.6722H68.0273V23.6519H63.2664V25.8988H67.8035V26.8785H63.2664V30.2761H62.1375L62.1375 22.6722Z" fill="#323282"/>
<path d="M71.8614 24.5034C74.034 24.5034 75.0989 25.8777 75.0989 27.4855C75.0989 29.0941 74.034 30.4675 71.8614 30.4675C69.6887 30.4675 68.6235 29.0941 68.6235 27.4855C68.6235 25.8777 69.6887 24.5034 71.8614 24.5034ZM71.8614 25.398C71.5804 25.3749 71.2978 25.4129 71.0329 25.5093C70.768 25.6058 70.5271 25.7584 70.3268 25.9567C70.1264 26.155 69.9714 26.3943 69.8722 26.6582C69.7731 26.9221 69.7322 27.2043 69.7524 27.4855C69.7581 28.041 69.9828 28.5718 70.3777 28.9627C70.7725 29.3535 71.3057 29.5727 71.8612 29.5727C72.4168 29.5727 72.9499 29.3535 73.3447 28.9627C73.7396 28.5718 73.9643 28.041 73.97 27.4855C73.9902 27.2044 73.9494 26.9222 73.8502 26.6583C73.7511 26.3944 73.5961 26.1551 73.3958 25.9568C73.1955 25.7585 72.9546 25.6059 72.6898 25.5094C72.4249 25.413 72.1423 25.3749 71.8614 25.398Z" fill="#323282"/>
<path d="M81.7656 30.2761H80.7007V29.4347H80.6792C80.4324 29.7775 80.1027 30.052 79.7208 30.2327C79.339 30.4133 78.9176 30.4941 78.496 30.4675C77.1542 30.4675 76.1531 29.8925 76.1531 28.498V24.6957H77.2179V28.2847C77.2179 29.105 77.7292 29.573 78.8687 29.573C79.1005 29.596 79.3347 29.5702 79.5559 29.4972C79.7772 29.4242 79.9807 29.3056 80.1533 29.1491C80.3259 28.9926 80.4638 28.8017 80.5581 28.5886C80.6524 28.3755 80.701 28.1451 80.7007 27.9121V24.6957H81.7656V30.2761Z" fill="#323282"/>
<path d="M83.0647 24.6957H84.13V25.537H84.151C84.3979 25.1942 84.7276 24.9196 85.1094 24.7388C85.4912 24.5581 85.9126 24.4771 86.3342 24.5034C87.6765 24.5034 88.6776 25.0792 88.6776 26.4738V30.2761H87.6124V26.687C87.6124 25.8667 87.101 25.398 85.9616 25.398C85.7297 25.375 85.4956 25.4009 85.2743 25.474C85.0531 25.5471 84.8496 25.6658 84.677 25.8223C84.5044 25.9789 84.3666 26.1699 84.2724 26.383C84.1781 26.5962 84.1296 26.8267 84.13 27.0597V30.2761H83.0647V24.6957Z" fill="#323282"/>
<path d="M94.9078 29.5628H94.8864C94.6235 29.8627 94.2966 30.0997 93.9298 30.2563C93.563 30.4129 93.1657 30.4851 92.7673 30.4675C92.3728 30.4788 91.9801 30.4108 91.6123 30.2676C91.2446 30.1244 90.9093 29.9089 90.6263 29.6339C90.3433 29.3588 90.1183 29.0298 89.9647 28.6663C89.8111 28.3028 89.7319 27.9122 89.7319 27.5175C89.7319 27.1229 89.8111 26.7322 89.9647 26.3687C90.1183 26.0052 90.3433 25.6762 90.6263 25.4012C90.9093 25.1261 91.2446 24.9106 91.6123 24.7674C91.9801 24.6242 92.3728 24.5563 92.7673 24.5675C93.1663 24.5453 93.5652 24.6154 93.9327 24.7725C94.3002 24.9295 94.6266 25.1692 94.8864 25.473H94.9078V22.6082H95.9727V30.2761H94.9078V29.5628ZM92.9055 29.573C93.1764 29.5745 93.4449 29.5224 93.6956 29.4198C93.9463 29.3172 94.1743 29.166 94.3664 28.975C94.5585 28.784 94.7109 28.5569 94.8149 28.3068C94.9189 28.0566 94.9725 27.7884 94.9725 27.5175C94.9725 27.2466 94.9189 26.9784 94.8149 26.7283C94.7109 26.4781 94.5585 26.251 94.3664 26.06C94.1743 25.869 93.9463 25.7178 93.6956 25.6152C93.4449 25.5126 93.1764 25.4606 92.9055 25.4621C92.6309 25.4418 92.3551 25.4811 92.097 25.5773C91.839 25.6736 91.6048 25.8245 91.4106 26.0198C91.2164 26.215 91.0666 26.4499 90.9717 26.7084C90.8768 26.967 90.8388 27.243 90.8606 27.5175C90.8397 27.7919 90.8782 28.0675 90.9734 28.3256C91.0686 28.5838 91.2184 28.8184 91.4124 29.0134C91.6065 29.2085 91.8403 29.3594 92.098 29.456C92.3556 29.5525 92.6311 29.5924 92.9055 29.573Z" fill="#323282"/>
<path d="M97.2616 26.4417C97.4 25.0472 98.3585 24.5034 100.03 24.5034C101.17 24.5034 102.597 24.7909 102.597 26.0909V29.0941C102.597 29.4245 102.746 29.5729 103.077 29.5729C103.202 29.57 103.326 29.5558 103.449 29.5308V30.2761C103.174 30.3187 102.897 30.3402 102.619 30.3401C102.086 30.3401 101.734 30.1909 101.66 29.5628C101.348 29.8697 100.976 30.1086 100.568 30.2643C100.159 30.4201 99.722 30.4892 99.2851 30.4675C97.432 30.4675 97.0164 29.5097 97.0164 28.7855C97.0164 27.7628 97.6234 27.2409 99.4124 27.0495L100.627 26.9214C101.223 26.8573 101.596 26.7511 101.596 26.2503C101.596 25.4839 100.851 25.3347 99.9874 25.3347C99.0718 25.3347 98.2944 25.5792 98.2624 26.4417H97.2616ZM101.596 27.3581C101.436 27.5393 101.148 27.6136 100.552 27.6878L99.3492 27.837C98.5179 27.9441 98.0812 28.1675 98.0812 28.7534C98.0812 29.2753 98.6031 29.637 99.3804 29.637C100.584 29.637 101.596 28.998 101.596 28.0714V27.3581Z" fill="#323282"/>
<path d="M104.642 22.9808H105.707V24.6957H107.305V25.5261H105.707V28.9659C105.707 29.4136 106.027 29.573 106.57 29.573C106.816 29.5692 107.062 29.5443 107.305 29.4988V30.3933C106.91 30.4523 106.511 30.4771 106.112 30.4675C105.068 30.4675 104.642 29.9566 104.642 29.1472V25.5261H103.491V24.6957H104.642V22.9808Z" fill="#323282"/>
<path d="M108.114 22.6082H109.179V23.7792H108.114V22.6082ZM108.114 24.6957H109.179V30.2761H108.114V24.6957Z" fill="#323282"/>
<path d="M113.47 24.5034C115.643 24.5034 116.709 25.8777 116.709 27.4855C116.709 29.0941 115.643 30.4675 113.47 30.4675C111.299 30.4675 110.233 29.0941 110.233 27.4855C110.233 25.8777 111.298 24.5034 113.47 24.5034ZM113.47 25.398C113.19 25.375 112.907 25.413 112.642 25.5095C112.377 25.606 112.136 25.7586 111.936 25.9569C111.736 26.1552 111.581 26.3945 111.482 26.6583C111.382 26.9222 111.342 27.2044 111.362 27.4855C111.368 28.0411 111.592 28.572 111.987 28.9628C112.382 29.3536 112.915 29.5729 113.471 29.5729C114.026 29.5729 114.56 29.3536 114.954 28.9628C115.349 28.572 115.574 28.0411 115.58 27.4855C115.6 27.2043 115.559 26.9221 115.46 26.6582C115.361 26.3943 115.206 26.155 115.005 25.9567C114.805 25.7584 114.564 25.6058 114.299 25.5093C114.034 25.4129 113.751 25.3749 113.47 25.398Z" fill="#323282"/>
<path d="M117.762 24.6957H118.827V25.537H118.849C119.096 25.1942 119.426 24.9195 119.807 24.7387C120.189 24.558 120.61 24.477 121.032 24.5034C122.374 24.5034 123.375 25.0792 123.375 26.4737V30.2761H122.31V26.687C122.31 25.8667 121.799 25.398 120.659 25.398C120.427 25.375 120.193 25.401 119.972 25.474C119.751 25.5471 119.547 25.6658 119.375 25.8224C119.202 25.9789 119.064 26.1699 118.97 26.383C118.876 26.5961 118.827 26.8266 118.827 27.0597V30.2761H117.762V24.6957Z" fill="#323282"/>
</svg>
