<svg xmlns="http://www.w3.org/2000/svg" width="533" height="142" viewBox="0 0 533 142" fill="none"><g clip-path="url(#clip0_562_74)"><path d="M0.845703 70.9972C0.845703 31.8334 32.6229 0 71.7193 0C110.813 0 142.593 31.8334 142.593 70.9972C142.593 110.164 110.813 141.997 71.7193 141.997C32.6229 142 0.845703 110.394 0.845703 70.9972Z" fill="#C8102E"></path><path d="M75.2435 79.2918C75.3294 79.2747 75.4125 79.2406 75.4841 79.1951C75.5586 79.1439 75.6188 79.0813 75.6675 79.0102C75.7391 79.0102 75.9511 78.7968 75.8794 79.0784C75.8107 79.3657 75.6675 79.5762 75.5242 79.6473L75.169 79.8607H75.0287C75.0287 79.8607 74.957 79.5734 74.957 79.6473C74.957 79.7213 75.0974 79.434 75.2406 79.3629L75.2435 79.2918ZM76.2347 80.7852C76.2347 80.7852 76.1659 81.1407 76.0227 81.209L75.8107 81.3512C75.8107 81.4223 75.7391 81.4963 75.6675 81.3512V81.1407C75.6675 81.1407 75.5271 81.0696 75.7391 80.8534L76.2347 80.4979C76.3063 80.4296 76.5183 80.2134 76.3063 80.7852H76.2347ZM76.9451 80.9985C76.9394 80.9416 76.9451 80.8876 76.9737 80.8364C76.9995 80.7823 77.0368 80.7425 77.0883 80.7141C77.3433 80.6429 77.6154 80.6429 77.8704 80.7141C78.3659 80.7852 78.936 81.5674 79.0047 81.6385C79.3686 82.1961 79.6779 82.7934 79.9272 83.4164V83.6297C80.2509 84.028 80.6662 84.3437 81.1332 84.5514C81.7576 84.7362 82.3993 84.8557 83.0496 84.9069L84.5421 85.1942C84.8658 85.2938 85.1637 85.4588 85.4186 85.6806C85.6736 85.8997 85.8856 86.1699 86.0317 86.4743H85.8884L85.6048 86.1187C85.2811 85.7802 84.8572 85.5583 84.3988 85.4758C83.7428 85.362 83.0782 85.3108 82.4108 85.3336C82.2733 85.3364 82.1386 85.3706 82.0155 85.4303C81.8923 85.4901 81.7834 85.5811 81.7004 85.6892C81.56 85.9765 81.5113 86.2979 81.56 86.6137C81.6287 87.0375 81.984 86.8981 82.0556 86.8981C82.1272 86.8981 82.6228 86.4743 82.6228 86.4743H82.6944C82.6858 86.5937 82.6629 86.7132 82.6228 86.8298L82.1272 87.1854L81.7004 87.3959C81.4168 87.541 81.2764 87.467 81.2048 87.3959C81.1332 87.3276 80.9928 87.1115 80.9212 87.0403C80.9212 87.0034 80.9069 86.9692 80.8782 86.9408C80.8496 86.9123 80.8152 86.8981 80.7779 86.8981C80.6376 86.8981 80.6376 86.9692 80.6376 87.0403C80.6376 87.1115 80.566 87.1854 80.566 87.2537C80.566 87.3248 80.4256 87.8965 80.4944 87.9648C80.6261 88.0871 80.7865 88.1725 80.9642 88.2094C81.1389 88.2464 81.3222 88.235 81.4912 88.1782C81.7032 88.1782 81.9152 87.8937 81.9868 87.8226C82.0584 87.7515 82.0584 87.8937 82.0584 87.9648C82.0584 88.0359 81.7032 88.3915 81.6316 88.3915L81.348 88.6048L80.8524 88.7471C80.6433 88.8267 80.4686 88.9775 80.3568 89.1709C80.2938 89.2363 80.2537 89.3217 80.2394 89.4098C80.2279 89.498 80.2423 89.5891 80.2852 89.6715C80.4285 89.8138 80.7121 89.6715 80.7808 89.6004C81.2735 89.4269 81.7118 89.1368 82.0584 88.7471C82.0985 88.7101 82.1243 88.6617 82.13 88.6048C82.2103 88.4086 82.3048 88.2151 82.4136 88.0359V88.6048C82.3965 88.7784 82.3478 88.9433 82.2704 89.1026C82.0584 89.5265 81.0644 90.0271 80.8496 90.1693C80.6347 90.3116 80.7092 90.3116 80.7092 90.3827C80.6949 90.5761 80.6462 90.7724 80.566 90.9487C80.566 91.1621 80.7092 91.0938 80.7779 91.0938L81.0615 90.9487L81.9152 90.3144C82.0326 90.249 82.13 90.1551 82.2045 90.0442C82.279 89.9332 82.3248 89.8081 82.342 89.6744V89.8877C82.342 90.0328 82.2704 90.175 82.2704 90.3144C82.2704 90.4538 81.9868 90.5989 81.9152 90.67C81.7806 90.7411 81.6717 90.8577 81.6087 91.0028C81.5457 91.1422 81.5285 91.2986 81.5629 91.4522C81.56 91.8078 81.5829 92.1634 81.6316 92.5189V92.8745C81.6316 93.3723 81.136 93.2983 80.9928 93.2983H80.6376L76.1659 82.3468C76.3636 82.2842 76.5383 82.1591 76.6615 81.9913C77.0167 81.704 76.9451 81.1379 76.9451 80.8534V80.9985ZM86.3153 87.7543C86.4041 88.0075 86.4499 88.272 86.4556 88.5366C86.533 89.5094 86.533 90.4822 86.4556 91.4522C86.4556 91.7367 86.3869 92.0923 86.3869 92.5189C86.3869 92.9428 86.3153 94.7946 86.3153 94.9368C86.3153 95.079 86.5989 95.4346 86.6705 95.4346C87.0228 95.3123 87.3551 95.1445 87.6645 94.9368C87.7819 94.8117 87.9252 94.7149 88.0856 94.6524C88.246 94.5898 88.4179 94.567 88.5869 94.5812H88.7273C88.7273 94.6524 88.5153 94.7235 88.3721 94.7946C87.9968 95.025 87.6817 95.3407 87.4497 95.7191C87.3924 95.7418 87.3408 95.7788 87.3064 95.83C87.2692 95.8812 87.2463 95.9409 87.2377 96.0035C86.7421 96.6435 87.3064 96.9991 87.4497 97.1413L87.0944 97.4258C86.9111 97.4969 86.7077 97.5111 86.5158 97.4599C86.3239 97.4087 86.1548 97.2978 86.0317 97.1442C85.8884 97.0731 85.8197 97.1442 85.8197 97.1442C85.7481 97.2779 85.7137 97.4286 85.728 97.5794C85.7423 97.7302 85.7968 97.8752 85.8913 97.9947C86.0288 98.154 86.2236 98.2593 86.4327 98.2877C86.6418 98.3133 86.8538 98.2592 87.0285 98.1369C87.4468 97.9435 87.8135 97.6505 88.0942 97.2836C88.2346 97.1413 88.2345 97.2125 88.2345 97.2836L88.0226 97.8525C87.633 98.2735 87.146 98.5921 86.6017 98.7741L86.3153 98.9903C86.089 99.1211 85.897 99.306 85.7624 99.5308C85.6278 99.7526 85.5475 100.009 85.5361 100.27H85.6765C85.7481 100.27 85.7481 100.199 85.7481 100.128H85.8884L86.4556 99.9148C86.891 99.6531 87.295 99.343 87.6616 98.9903L88.0168 98.7058C88.0168 98.8026 87.9939 98.9021 87.9452 98.9903C87.8994 99.1752 87.8106 99.3516 87.6874 99.4995C87.5642 99.6474 87.4095 99.7669 87.2348 99.8437C86.934 100.111 86.6476 100.396 86.384 100.7C86.2035 100.856 86.066 101.055 85.9801 101.277C85.8942 101.499 85.8598 101.741 85.8856 101.977C85.8168 102.19 85.9572 102.19 85.9572 102.122C85.9572 102.051 86.1004 101.977 86.1004 101.977C86.3267 101.698 86.6189 101.476 86.9512 101.337C87.2004 101.138 87.4153 100.896 87.59 100.626C87.6616 100.626 87.5213 100.839 87.5213 100.91C87.5155 101.044 87.464 101.169 87.378 101.266C87.1489 101.511 86.9798 101.801 86.8824 102.122C86.6619 102.833 86.5903 103.584 86.6705 104.324C86.6991 104.401 86.702 104.486 86.6733 104.563C86.6476 104.64 86.596 104.708 86.5272 104.751C86.3869 104.964 85.96 104.679 85.8197 104.679C85.6765 104.679 85.3928 104.679 85.3928 104.751L82.554 97.7814C82.5569 97.8383 82.5827 97.8866 82.6256 97.9236C82.8376 97.9236 82.9808 97.7102 83.1928 97.4998C83.2788 97.3632 83.3389 97.2096 83.3618 97.0503C83.3876 96.8939 83.3762 96.7289 83.3332 96.5753C83.3103 96.2851 83.2616 96.0007 83.1928 95.7219C83.1212 95.3663 83.0496 95.0108 83.0496 94.9397C82.9465 94.5158 82.9722 94.0692 83.1212 93.6596C83.1928 93.5174 83.76 91.6684 83.8316 91.5973L84.5421 88.5394H84.6137V88.3232C84.6853 88.1099 84.754 88.181 84.754 88.1099L86.1749 87.6121H86.3181L86.3153 87.7543ZM89.4406 94.1546L90.363 93.5145C90.7583 93.2415 91.188 93.0281 91.6406 92.8745L92.4198 92.7294C92.6346 92.7294 92.8466 92.7294 92.775 92.8006L92.563 92.9428C92.2565 93.1334 91.9185 93.2784 91.569 93.3695C91.2653 93.4662 90.9789 93.6112 90.7182 93.7933C90.6466 93.8644 90.2914 94.0806 90.575 94.1489L91.2138 94.3622C91.2825 94.3622 91.4973 94.4333 91.2825 94.5044C91.0734 94.55 90.8557 94.55 90.6437 94.5044L89.8617 94.3622H89.4377C89.4377 94.3622 89.2257 94.3622 89.4377 94.22L89.4406 94.1546ZM89.5809 91.8789C90.0364 91.933 90.4976 91.8818 90.9302 91.7367L92.4198 91.4522H93.0586C93.1302 91.5205 93.4854 91.5205 93.2018 91.5945C92.6633 91.7481 92.119 91.8647 91.569 91.95C91.2854 92.0183 90.7182 92.1634 90.7898 92.3056L91.0734 92.6612C91.145 92.6612 91.2854 92.7294 91.145 92.8034C90.7841 92.7977 90.4346 92.6725 90.151 92.4478C90.1338 92.4478 90.1137 92.4421 90.1023 92.4251C90.088 92.4137 90.0822 92.3938 90.0822 92.3739L89.5809 91.8789C89.5122 91.8789 89.2973 91.7367 89.5809 91.8106V91.8789ZM93.9838 92.4478L94.1958 92.3056C94.4164 92.1691 94.5883 91.9728 94.6943 91.7367C94.7802 91.6115 94.8318 91.4636 94.8346 91.31C94.763 91.1678 94.763 91.0995 94.6227 91.1678L94.2674 91.31C94.2273 91.4266 94.2044 91.5461 94.1958 91.6656C94.213 91.7879 94.2359 91.9045 94.2674 92.0211C94.1242 92.0923 94.0554 92.1662 94.0554 92.0211C94.0383 91.8931 93.9896 91.7708 93.9122 91.6656C93.9122 91.5973 93.7719 91.31 93.9838 91.1678L94.551 90.8122H94.975C94.975 90.7439 94.9062 90.5278 94.9062 90.3884C94.9091 90.2973 94.9378 90.2092 94.9893 90.1324C95.0409 90.0613 95.1096 89.9987 95.1898 89.9588L95.6138 89.7455H96.3242C96.393 89.8166 96.4646 89.8877 96.393 89.8877L96.0378 90.0328C96.0378 90.0328 95.5393 90.0328 95.4706 90.175C95.399 90.3173 95.2557 90.3173 95.399 90.8151C95.4649 91.0398 95.5622 91.256 95.6826 91.4579C95.7542 91.5262 95.8258 91.6684 95.7542 91.7424H95.6109C95.5336 91.7253 95.4534 91.7253 95.376 91.7538C95.3016 91.7794 95.2357 91.822 95.1841 91.8846L94.6885 92.2402L94.3333 92.5275L93.9122 92.7323C93.9122 92.7323 93.7002 92.8774 93.9838 92.8774C94.2159 92.8887 94.445 92.8119 94.6227 92.664L95.1898 92.2373C95.1898 92.2373 95.6854 92.0951 95.8287 92.1691C96.0406 92.2772 96.2154 92.4535 96.3242 92.6669C96.393 92.8091 96.5362 93.0907 96.8198 92.9513L97.1034 92.8091L97.387 92.5246H97.5302C97.599 92.5246 97.599 92.5929 97.599 92.6669C97.4844 92.8973 97.3125 93.0907 97.1034 93.2358C97.0347 93.3126 96.9459 93.3752 96.8456 93.415C96.7453 93.452 96.6393 93.4662 96.5362 93.4491L96.2526 93.3069C96.2326 93.2756 96.2068 93.2528 96.1753 93.2386C96.1438 93.2244 96.1094 93.213 96.075 93.213C96.0406 93.213 96.0063 93.2215 95.9748 93.2386C95.9432 93.2557 95.9175 93.2784 95.8974 93.3069C95.8372 93.3751 95.7599 93.432 95.674 93.4719C95.588 93.5088 95.4935 93.5259 95.4018 93.5231H94.9062V93.2386C94.8346 93.1675 94.8346 93.0935 94.9062 93.0935C94.9234 93.176 94.9664 93.25 95.0323 93.3012C95.0982 93.3524 95.1784 93.3808 95.2615 93.378L95.6167 93.1647C95.5995 93.0366 95.5508 92.9143 95.4763 92.8091C95.3875 92.7693 95.2901 92.7493 95.1927 92.7493C95.0953 92.7493 94.9979 92.7721 94.9091 92.8091C94.7315 92.9854 94.5109 93.1078 94.2703 93.1647C94.1042 93.2159 93.9294 93.2187 93.7661 93.1647C93.6 93.1135 93.4568 93.0139 93.3479 92.8802L92.9927 92.5246C92.9927 92.5246 92.9239 92.4535 93.2075 92.4535C93.4768 92.482 93.7461 92.4308 93.9867 92.3113L93.9838 92.4478ZM96.4675 91.0967C96.3271 91.2389 96.3271 91.0967 96.3271 91.0967C96.3271 91.0967 96.3959 90.67 96.3959 90.596C96.393 90.5562 96.3959 90.5192 96.4102 90.4851C96.4216 90.4453 96.4417 90.414 96.4675 90.3855L96.6107 90.8094C96.6794 91.0967 96.6794 91.0227 96.6107 91.0227H96.4675V91.0967ZM96.5391 91.3811H96.8943L97.1779 91.6656C97.2466 91.7367 97.2466 91.9529 97.2466 91.9529L96.8914 91.8106L96.5362 91.5233C96.4675 91.5233 96.3958 91.3811 96.5391 91.3811ZM96.4675 88.6077L96.8943 88.181V88.0388C96.963 87.9677 96.963 87.8254 97.0347 87.8254H98.1003C98.1719 87.8254 98.3868 87.7543 98.3151 87.8965C98.2435 88.0388 98.1719 88.107 98.0315 88.0388H97.536C97.4643 88.0388 97.3927 87.9677 97.2495 88.107C97.0175 88.3261 96.8055 88.565 96.6107 88.8182L96.3271 89.1055C96.3271 89.1055 96.1839 89.2477 96.1839 89.0344L96.3959 88.5366L96.4675 88.6077ZM98.3123 89.4611C98.3123 89.4611 97.8138 89.6033 98.0974 89.8849L98.3839 90.03C98.3839 90.0982 98.5243 90.1722 98.3839 90.1722C98.0974 90.2149 97.8052 90.1921 97.5331 90.1011C97.4185 90.03 97.3326 89.9162 97.2953 89.7882C97.2552 89.6545 97.2667 89.5151 97.3211 89.3899C97.4099 89.3274 97.4815 89.2363 97.5302 89.1396C97.5789 89.0429 97.6047 88.932 97.6047 88.821V88.4655C97.6047 88.5366 97.748 88.6105 97.8167 88.7528C97.8883 88.895 98.0315 89.0372 97.8883 89.1766C97.7451 89.3188 97.7451 89.3899 97.9571 89.3188H98.3123C98.3839 89.3188 98.4555 89.3899 98.3123 89.4611ZM98.5271 90.7411C98.5271 90.7411 98.4555 91.0967 98.5987 91.1649H98.8823C98.8823 91.2218 98.868 91.273 98.8451 91.3242C98.8193 91.3754 98.7849 91.4181 98.7391 91.4522C98.7391 91.5205 98.6704 91.5205 98.8107 91.5945C98.8881 91.6087 98.9597 91.6428 99.0227 91.6912C99.0857 91.7395 99.1344 91.805 99.1659 91.8761V92.0183V92.2316L98.8107 92.0183L98.4555 91.8761C98.3868 91.8761 98.1719 91.9472 98.1003 91.8078C97.9914 91.7139 97.9198 91.5831 97.894 91.4409C97.8683 91.2986 97.8912 91.1536 97.9571 91.0256C97.9599 90.9374 97.9914 90.8463 98.0401 90.7724C98.0917 90.6984 98.1605 90.6359 98.2407 90.596C98.3123 90.596 98.4526 90.4538 98.3839 90.7411H98.5271ZM98.6675 88.5366L99.3063 88.6788C99.3779 88.7499 99.3779 88.821 99.3063 88.9661L99.0227 89.3188C98.8823 89.3871 98.8107 89.461 98.9511 89.2477C98.974 89.188 98.9769 89.1225 98.9654 89.06C98.954 89.0002 98.9224 88.9405 98.8823 88.8921L98.5987 88.6788C98.5271 88.6077 98.4555 88.5366 98.6675 88.5366ZM99.6615 92.5189H99.9451C100.017 92.5189 100.157 92.5189 100.085 92.5872L99.6615 93.085L98.8107 93.3012H97.8883L97.6047 93.159C97.6047 93.0879 97.536 93.0167 97.748 93.0167L98.8136 93.159L99.3092 92.9456L99.6644 92.6612L99.6615 92.5189ZM99.8735 90.8122H100.229C100.3 90.8833 100.441 90.9544 100.3 91.0256C100.157 91.0967 100.229 91.0967 100.157 91.31C100.163 91.384 100.146 91.4608 100.108 91.5233C100.071 91.5859 100.014 91.6371 99.9451 91.6656C99.9824 91.6001 99.9938 91.5177 99.9824 91.4437C99.9709 91.3669 99.9308 91.2929 99.8735 91.2417L99.5183 90.9544C99.5183 90.8833 99.3063 90.7411 99.8735 90.8122ZM94.4794 93.9412C93.8607 94.3736 93.3078 94.9027 92.8466 95.5057V95.6479C92.775 95.7191 92.4914 96.0746 92.6346 96.0746C92.775 96.0746 93.1302 96.1429 93.557 95.7191C93.981 95.2924 93.9122 95.3635 93.769 95.7873C93.6515 96.0633 93.451 96.2908 93.1961 96.4416C92.9411 96.5923 92.6461 96.6635 92.351 96.6379C92.013 96.6777 91.6692 96.6265 91.357 96.4956C91.357 96.4274 91.0734 96.3534 91.4286 96.2823C91.7838 96.214 91.8554 96.214 92.2078 95.7845L92.351 95.6423C92.351 95.6423 92.4198 95.5 92.2078 95.5C92.0359 95.4744 91.8612 95.4915 91.7007 95.5541C91.5375 95.6167 91.3971 95.7219 91.2854 95.8556L90.9302 96.2112C90.9302 96.2794 90.7869 96.4956 90.7869 96.2112C90.7869 95.9239 90.9302 95.7134 90.9989 95.5C90.9989 95.3578 90.9989 95.2867 91.0705 95.2127C91.1421 95.1445 91.0705 94.7889 91.5661 94.5016L92.9153 93.58C92.9153 93.5088 92.9841 93.3666 93.0557 93.3666C93.1273 93.3666 93.1989 93.1533 93.1273 93.3666C93.113 93.5089 93.0643 93.6482 92.9927 93.7705C92.9182 93.8929 92.8208 93.9981 92.7005 94.0778C92.3195 94.3252 91.9614 94.6125 91.6349 94.9311C91.6349 95.0022 91.4229 95.1445 91.7065 95.2156L92.2737 95.3606C92.2737 95.4289 92.414 95.5029 92.5573 95.3606C92.9354 94.8628 93.3909 94.4333 93.9065 94.0806L94.2674 93.8701C94.4107 93.8701 94.6943 93.799 94.551 93.9412H94.4794ZM87.1689 107.737C87.0257 107.808 87.0257 107.951 86.9569 107.951C86.8853 107.951 86.745 108.019 86.6733 107.88C86.6017 107.74 86.5301 107.595 86.6733 107.456H86.8137C86.8137 107.456 87.1689 107.311 87.1689 107.168L87.3093 106.955V107.1C87.2978 107.35 87.2233 107.595 87.0973 107.811L87.1689 107.737ZM86.1749 106.671C86.1061 106.671 86.1061 106.599 86.0345 106.528C85.9629 106.457 85.9629 106.386 86.1061 106.241L86.3897 105.885L86.6017 105.675C86.6733 105.675 86.8137 105.604 86.7449 105.743V106.031C86.6676 106.221 86.5473 106.392 86.3897 106.528L86.2465 106.671H86.1749ZM82.13 96.6435C82.0584 96.7146 81.9868 96.6435 81.9152 96.5753C81.8951 96.5155 81.8894 96.4501 81.9037 96.3904C81.9152 96.3278 81.9467 96.2681 81.9868 96.2197L82.4136 95.8641C82.4824 95.7219 82.6256 95.5768 82.6256 95.8641C82.5941 96.0433 82.5196 96.214 82.4136 96.3619L82.13 96.5753V96.6435ZM81.4884 95.1502H81.4168C81.3451 95.079 81.2048 94.9368 81.3451 94.7946C81.4884 94.6524 81.772 94.439 81.8436 94.3679C81.9123 94.2996 82.1272 93.9441 81.984 94.6552C81.8436 95.3663 81.8436 95.0108 81.7004 95.079L81.4884 95.2213V95.1502ZM62.0376 93.4434L61.754 93.5857L61.2584 93.7279C61.0665 93.7649 60.8889 93.8644 60.7629 94.0123C60.6196 94.2257 60.6912 93.9441 60.6912 93.8701L61.0464 93.2301C61.1238 93.0679 61.1381 92.883 61.0865 92.7095C61.0321 92.5388 60.9175 92.3938 60.7629 92.3028C60.6941 92.2715 60.6368 92.2231 60.5996 92.1577C60.5595 92.0951 60.5423 92.0211 60.548 91.9472C60.4592 91.5575 60.3417 91.1763 60.1928 90.8094L59.4824 88.3915C59.2704 87.6804 58.8436 87.7486 58.7032 87.7486L57.6376 88.1042C57.4857 88.1725 57.3196 88.1981 57.1563 88.1696C56.9901 88.1469 56.8383 88.0729 56.7151 87.962C55.9503 87.7486 55.1482 87.7259 54.3719 87.8937C54.2315 87.962 54.3003 88.1042 54.3003 88.1782C54.3375 88.5081 54.3375 88.8438 54.3003 89.1738C54.3003 89.4611 54.0883 90.2405 54.0883 90.4538C54.0883 90.6671 54.0167 90.4538 54.0167 90.4538V89.8138C54.1026 89.3046 54.0281 88.784 53.8047 88.3204C53.7331 88.0359 53.5927 88.1782 53.5211 88.1782L53.0971 88.5337C52.8823 88.676 52.9539 88.4626 53.0255 88.4626C53.0971 88.4626 53.5211 88.0388 53.6643 87.8965C54.4636 87.4955 55.3315 87.2565 56.2196 87.1854C57.924 86.9721 58.348 86.4032 58.56 86.187C58.7748 85.9736 58.4912 85.4758 58.4912 85.4758C58.4912 85.4758 58.56 85.2625 58.6316 85.2625L59.0584 85.5498V85.692C59.1615 85.7745 59.2303 85.8911 59.2561 86.022C59.2818 86.1528 59.2618 86.2865 59.1988 86.4032C59.1272 86.6165 59.4824 86.4743 59.554 86.4032C59.723 86.332 59.8662 86.2154 59.9665 86.0647C60.0667 85.9111 60.1212 85.7318 60.1212 85.5498C60.0496 84.9069 58.9152 84.3409 58.6287 84.2697C58.3422 84.1986 58.6287 84.1986 58.6287 84.1986H58.9839C59.3076 84.2754 59.617 84.3921 59.9063 84.5542C60.336 84.6253 60.78 84.5798 61.1839 84.412L62.1064 84.1986C62.5332 84.1304 62.2467 83.9881 62.178 83.9881C62.1064 83.9881 60.6168 83.6326 60.4019 83.5614C60.2587 83.5728 60.1154 83.5558 59.9808 83.5046C59.8462 83.4534 59.723 83.3766 59.6227 83.277C59.4795 83.1319 59.6227 83.2059 59.6227 83.2059L60.1899 83.3481C60.528 83.4164 60.8774 83.368 61.1839 83.2059L62.1064 82.637C62.5332 82.4947 62.2467 82.4236 62.178 82.4236L61.6795 82.2814C60.866 82.1989 60.0467 82.3724 59.3391 82.7792C59.0555 82.9243 59.1959 82.7109 59.3391 82.637C59.4795 82.5687 60.8316 81.8576 61.0436 81.7836H61.3272L61.8228 81.3569C62.6621 80.9018 63.5415 80.5235 64.4496 80.2219C64.8736 80.0797 65.16 80.4353 65.3004 80.5775C65.4408 80.7197 65.6556 80.6458 65.7244 80.6458C65.7931 80.6458 66.008 80.2219 66.0796 80.148C66.1512 80.0797 66.22 80.148 66.1512 80.2191C66.1713 80.4381 66.2171 80.6515 66.2916 80.8591C66.346 81.1948 66.5207 81.502 66.7871 81.7125L62.0376 93.4434ZM57.9211 103.47C57.8753 103.419 57.8209 103.382 57.7607 103.357C57.7006 103.331 57.6318 103.323 57.5659 103.328C57.2651 103.377 56.9901 103.527 56.7868 103.752C56.6435 103.897 56.7151 103.684 56.7151 103.684L56.8584 103.328L57.142 102.617C57.3568 102.262 57.0732 102.33 57.0016 102.262C56.8641 102.23 56.7381 102.156 56.6464 102.048C56.1508 101.693 56.0076 100.768 55.936 100.341C55.9188 100.091 55.8443 99.8465 55.724 99.6303C55.4547 98.868 55.2628 98.08 55.1539 97.2836C55.0852 96.874 54.9878 96.47 54.8703 96.0746C54.3747 94.5073 53.8047 94.2968 53.6643 94.2257C53.3721 94.0863 53.0542 94.0209 52.7333 94.0351C52.4125 94.0493 52.0974 94.1375 51.8195 94.2996C51.6791 94.3679 51.7508 94.1546 51.7508 94.1546L52.0344 93.8701C52.4612 93.5145 53.3836 93.6568 53.7388 93.7279C54.094 93.7961 54.0224 93.5856 54.094 93.5145C54.2029 92.903 54.2029 92.2743 54.094 91.6656C54.094 91.31 54.2372 91.3811 54.2372 91.3811L54.5925 91.5233C55.0193 91.6656 55.0909 92.3056 55.0909 92.4478C55.0909 92.5901 55.2313 92.5901 55.2313 92.5189L55.5149 92.3056C55.7985 91.7367 55.2313 90.9516 55.1597 90.8122C54.9477 90.3884 55.1597 90.67 55.2313 90.7439L55.3745 90.8862L55.9417 91.4551C56.3227 91.6201 56.7495 91.6428 57.1477 91.5233C57.7865 91.4551 57.2193 91.31 57.0073 91.1678C56.8154 91.128 56.6435 91.0284 56.5118 90.8833L56.1565 90.3855C56.0849 90.1722 56.2282 90.2405 56.2282 90.2405L56.5118 90.3855C56.9329 90.4566 57.3654 90.4566 57.7894 90.3855H58.073L58.285 90.8833C58.5972 91.7082 58.9524 92.5133 59.3506 93.3012C59.4222 93.5145 59.491 93.5885 59.491 93.7279C59.491 93.8673 59.5626 94.9368 59.5626 95.1502C59.5626 95.3635 59.7746 95.2184 59.8462 95.1502C60.0066 95.025 60.147 94.8799 60.2701 94.7235C60.4134 94.5812 60.4134 94.7235 60.4134 94.7235C60.4134 94.7235 60.3417 94.9368 60.2701 95.0108C60.2014 95.079 60.5537 95.9324 60.6253 96.0775L60.8402 96.5013L57.9211 103.47ZM50.1122 98.2792H49.1898C47.9838 98.2109 47.345 96.7886 47.345 96.7886C47.345 96.7886 47.4166 96.433 47.4853 96.5013L48.1241 97.1442C48.6169 97.7131 49.2958 98.0914 50.0406 98.2109C50.4674 98.2792 50.1838 98.3531 50.1122 98.3531V98.2792ZM41.8793 98.4925C41.8793 98.6347 41.8077 98.5636 41.7389 98.5636C41.6673 98.5636 41.5957 98.208 41.5957 98.208C41.5957 98.208 41.8077 97.9947 41.8793 98.063C41.9509 98.1369 41.9509 98.3503 41.8793 98.4925ZM41.0256 95.9324C40.954 95.9324 40.742 96.0035 40.742 95.6479C40.6905 95.3863 40.7162 95.1132 40.8136 94.8657L41.1689 94.2257C41.1689 94.2257 41.3092 94.0834 41.3808 94.2257C41.5957 94.4589 41.7217 94.7604 41.736 95.079C41.736 95.1501 41.8764 95.3663 41.5212 95.6479L41.0256 95.9324ZM63.3897 66.5624C63.2665 66.7359 63.1691 66.9294 63.1032 67.1313L62.9629 67.2735C62.8913 67.3447 62.6793 67.2024 62.6077 67.1313C62.5389 67.0602 62.6077 67.0602 62.6077 66.9891C62.6077 66.918 62.7509 66.7757 62.8197 66.7046C62.8913 66.6335 63.3181 66.3491 63.3181 66.3491C63.3181 66.3491 63.4585 66.4913 63.3897 66.5624ZM61.9689 66.0646C61.9001 66.2609 61.7769 66.4344 61.6136 66.5624C61.4704 66.7757 61.4704 66.7046 61.3988 66.7046L61.1868 66.5624C61.0464 66.4913 61.1868 66.4202 61.1868 66.3491L61.33 66.2068C61.3988 66.0646 61.754 65.9935 61.754 65.9935C61.754 65.9935 62.0376 65.9935 61.9689 66.0646ZM60.0496 66.1357L49.0466 61.6556C49.0953 61.6129 49.1354 61.556 49.1611 61.4934C49.1841 61.4337 49.1955 61.3654 49.1898 61.3C49.1898 61.1578 49.121 60.66 49.545 60.66H50.9659C51.1263 60.6884 51.2924 60.6685 51.4442 60.6059C51.5961 60.5433 51.725 60.4381 51.8166 60.3044C51.8883 60.2333 51.8883 60.0199 52.1002 59.9488H52.8107C52.5271 59.9972 52.275 60.1479 52.1002 60.3755C52.1002 60.4466 51.6763 60.9444 51.533 61.2289L51.3211 61.5844C51.3211 61.5844 51.3211 61.7267 51.533 61.7267L52.0286 61.5844C52.1719 61.5844 52.2435 61.6556 52.3122 61.4422C52.5185 60.8904 52.8594 60.4011 53.3062 60.0199C53.524 59.8948 53.7675 59.8208 54.0167 59.8066H54.4435L53.6643 60.1622C53.3234 60.549 53.037 60.9786 52.8135 61.4422C52.8135 61.5133 52.6703 61.7978 52.8135 61.94C52.9539 62.0822 53.0255 62.0822 53.2375 61.8689C53.4495 61.6556 53.5927 61.7267 53.6643 61.3711C53.7388 61.0923 53.8591 60.8278 54.0195 60.5888C54.1542 60.4125 54.3232 60.2674 54.518 60.1622C54.5867 60.1622 54.73 60.1622 54.6583 60.2333C54.5867 60.3044 54.3031 60.5177 54.3031 60.7311C54.2516 60.8107 54.2143 60.8989 54.1971 60.9928C54.18 61.0866 54.1828 61.1805 54.2 61.2744C54.2201 61.3654 54.2573 61.4536 54.3117 61.5332C54.3662 61.6129 54.4349 61.6755 54.5151 61.7267C54.5839 61.7978 54.7271 61.94 55.2255 61.6556H55.4375C55.5091 61.6556 55.5808 61.6556 55.5808 61.5133L55.4375 61.3711C55.3688 61.3 55.0823 61.2289 55.0136 61.0866C54.9735 60.9217 54.9735 60.751 55.0136 60.5888L55.2255 60.1622C55.343 59.9773 55.4862 59.8094 55.6524 59.6644H55.936C56.0047 59.6644 56.0763 59.6644 56.0047 59.7355C55.7698 59.8521 55.5922 60.0569 55.5091 60.3044C55.5091 60.3755 55.4375 60.7311 55.7927 60.8022C56.1308 60.8534 56.4745 60.8022 56.7868 60.66C56.8813 60.5689 56.9558 60.458 57.0045 60.3357C57.0532 60.2134 57.0761 60.0825 57.0704 59.9488C57.1506 59.286 57.1276 58.6119 56.9987 57.9576C56.9271 57.8865 56.9271 57.7443 56.8584 57.6732C56.7782 57.3261 56.6063 57.0076 56.3599 56.7487L56.0047 56.4643C55.936 56.3931 56.0047 56.322 56.0763 56.322C56.5805 56.6093 56.9987 57.0275 57.2823 57.531C57.2823 57.6021 57.2823 57.6732 57.354 57.6732C57.4771 58.1653 57.5745 58.6631 57.6376 59.1666C57.6891 59.818 57.8066 60.4608 57.9928 61.0866C58.1761 61.5702 58.4969 61.9912 58.9152 62.2956L59.9808 62.7934L60.8345 63.2912C60.9748 63.3623 61.7569 63.9312 61.8285 64.429C61.9001 64.685 61.9001 64.9552 61.8285 65.2112C61.7569 65.2112 61.7569 65.3535 61.5449 65.3535C61.1209 65.2852 60.6884 65.3876 60.3389 65.6379C60.336 65.709 60.1212 65.8513 60.0496 66.1357ZM47.4166 59.2377L45.7121 58.9532C45.4199 58.9049 45.1192 58.9561 44.8585 59.0955C44.5749 59.3088 44.4345 59.451 44.4345 59.6644L44.5777 59.8066L37.6196 56.8909C37.6912 56.8909 37.7628 56.6065 37.6912 56.4643C37.6196 56.322 37.4076 55.8953 37.548 55.7531C37.5909 55.6848 37.6597 55.6336 37.737 55.6052C37.8144 55.5796 37.8975 55.5824 37.9748 55.608C38.7368 55.7275 39.5188 55.6564 40.2464 55.3947C40.5558 55.2781 40.8423 55.1102 41.0972 54.8969L41.4525 54.7547H41.736C41.4668 54.931 41.2261 55.1444 41.0256 55.3947L40.3868 56.2481C40.3181 56.2481 40.1748 56.3192 40.1748 56.3903C40.1748 56.4614 40.1748 56.5325 40.3868 56.4614C40.6131 56.4813 40.8423 56.4472 41.0514 56.359C41.2605 56.2708 41.4467 56.1343 41.5928 55.9608C41.8936 55.6934 42.1801 55.4089 42.4436 55.1074C42.6556 54.8941 43.0824 54.3251 43.6496 54.3251C43.1884 54.7717 42.7845 55.2724 42.4436 55.8185C42.3348 55.9921 42.2631 56.1855 42.2316 56.3874C42.2316 56.4244 42.2173 56.4614 42.1887 56.487C42.16 56.5126 42.1256 56.5297 42.0884 56.5297H42.0168C42.0168 56.6008 41.948 56.6719 42.0884 56.6719C42.4035 56.652 42.7043 56.5382 42.9564 56.3505C43.2085 56.1599 43.4004 55.9039 43.5092 55.6052C43.5809 55.5341 44.0764 54.3963 44.5033 54.1829H44.5749L45.0705 53.9696C45.0705 53.9696 45.1421 53.9696 45.0705 54.1118H44.9272C44.615 54.3991 44.3486 54.7348 44.1481 55.1074C44.1481 55.1785 43.7928 55.8185 44.2913 56.2452C44.4116 56.3391 44.5548 56.396 44.7067 56.4074C44.8585 56.4187 45.0074 56.3874 45.1421 56.3163C45.2108 56.3163 45.2824 56.2452 45.2108 56.103C45.0561 55.9807 44.9444 55.8072 44.8929 55.6166C44.8413 55.4231 44.8528 55.2212 44.9272 55.0363L45.2108 54.6807C45.3541 54.8229 45.7093 55.3919 46.3452 54.8941L47.2676 54.1118L47.4796 53.7562L47.6945 53.4007C47.7632 53.4007 47.8348 53.4007 47.8348 53.5429C47.8348 53.742 47.7861 53.9354 47.6945 54.1118L47.4796 54.4674C47.4109 54.6096 46.9124 55.2496 46.9124 55.463C46.9124 55.6763 46.8437 55.8185 47.4796 55.8185C48.1184 55.8185 49.8945 55.8185 50.8856 55.6763C51.8797 55.5341 53.5841 55.463 54.6469 55.8185C54.6669 55.8185 54.6841 55.8242 54.6984 55.8384C54.7128 55.8527 54.7185 55.8697 54.7185 55.8897C54.7185 55.9096 54.7128 55.9266 54.6984 55.9409C54.6841 55.9551 54.6669 55.9608 54.6469 55.9608C54.5123 56.4443 54.349 56.9194 54.1513 57.383L54.0081 57.5253L50.7424 58.3075L48.6827 59.0187C48.2731 59.1637 47.8291 59.1893 47.4051 59.0898V59.2377H47.4166ZM48.0525 60.2333L47.7689 60.66C47.7059 60.7225 47.6228 60.7624 47.5312 60.7766C47.4424 60.788 47.3507 60.7737 47.2705 60.7311C47.1301 60.66 47.1989 60.5888 47.1989 60.5888L47.4137 60.3755C47.4825 60.2333 47.8377 60.091 47.8377 60.091C47.8377 60.091 48.1241 60.2333 48.0525 60.2333ZM46.6345 59.7355C46.4942 59.7355 46.3509 59.9488 46.139 60.1622C45.927 60.3755 45.927 60.1622 45.927 60.1622C45.927 60.1622 45.7838 60.0199 45.7838 59.9488L46.0674 59.6644C46.139 59.5221 46.5658 59.451 46.5658 59.451C46.5658 59.451 46.7062 59.6644 46.6345 59.7355ZM36.4136 55.5398C36.4136 55.6109 36.3448 55.682 36.2732 55.7531L35.918 56.1087C35.7748 56.2509 35.706 56.1087 35.6344 56.1087V55.9665L35.7748 55.7531L36.2016 55.5398L36.4136 55.3975C36.4823 55.3975 36.4823 55.5398 36.4136 55.5398ZM35.2763 55.1842C35.2047 55.1842 35.0643 55.4687 35.0643 55.4687C35.0156 55.5597 34.944 55.6365 34.8524 55.682C34.8524 55.7531 34.7808 55.7531 34.7091 55.7531H34.5688C34.5544 55.7389 34.5401 55.7218 34.5315 55.7048C34.5229 55.6877 34.5201 55.6678 34.5201 55.645C34.5201 55.6223 34.5229 55.6052 34.5315 55.5853C34.5401 55.5654 34.5516 55.5511 34.5688 55.5369L34.7808 55.2525C34.9498 55.1444 35.1474 55.096 35.3479 55.1102H35.4196L35.2763 55.2525V55.1842ZM45.4973 49.8507C45.4744 49.5548 45.5431 49.259 45.695 49.003C45.8496 48.7498 46.0788 48.5479 46.351 48.4284C46.7778 48.2862 46.4226 48.5706 46.4226 48.6417C46.2879 48.7555 46.1819 48.8977 46.1075 49.057C46.033 49.2163 45.9957 49.3898 45.9957 49.5662C46.0674 49.7084 46.4226 49.424 46.4942 49.3529C47.1502 48.8778 47.726 48.3032 48.1986 47.6461C48.2702 47.5039 48.2702 47.7884 48.1986 47.9306C48.1929 48.0614 48.1413 48.1866 48.0554 48.2862C47.703 48.801 47.2734 49.2562 46.7778 49.6373C46.7491 49.6572 46.7234 49.6828 46.709 49.7141C46.6947 49.7454 46.6804 49.7796 46.6804 49.8165C46.6804 49.8507 46.689 49.8848 46.7062 49.9161C46.7234 49.9474 46.7463 49.9758 46.7749 49.9929C46.8465 50.064 46.8465 50.3485 46.9153 50.4907C46.9869 50.6329 47.0585 50.5618 47.1301 50.5618C47.451 50.2119 47.7374 49.8308 47.9809 49.424C48.0611 49.3045 48.1671 49.2078 48.2874 49.131C48.4106 49.057 48.5481 49.0115 48.6885 48.9973C48.9721 48.9262 48.7601 48.9973 48.7601 49.0684L48.5481 49.2106C48.1986 49.6316 47.8892 50.0839 47.6257 50.5618L47.2705 50.9885H46.9153L45.8496 51.2729C45.6377 51.2729 45.778 51.1307 45.8496 51.1307L46.2049 50.9174C46.2049 50.8463 46.2765 50.8463 46.2765 50.7751C46.4111 50.6642 46.5142 50.522 46.5744 50.3598C46.6374 50.1977 46.6546 50.0213 46.6288 49.8507C46.6288 49.6373 46.4885 49.7084 46.4885 49.7084L46.2765 49.8507C46.0272 50.0498 45.8525 50.3257 45.778 50.6329C45.778 50.9885 45.6377 50.704 45.6377 50.704C45.5059 50.3883 45.4572 50.0469 45.4944 49.7084L45.4973 49.8507ZM47.7689 50.9174C47.8405 50.7751 47.9122 50.9174 47.9122 50.9174C47.9408 51.1421 48.0124 51.3611 48.1241 51.5574C48.1958 51.8419 48.4077 51.4863 48.4077 51.4152C48.551 51.2417 48.6713 51.0511 48.763 50.8463C48.8117 50.7581 48.8346 50.6614 48.8346 50.5618L49.2585 49.5662L49.4705 49.3529C49.5421 49.2818 49.4705 49.4951 49.4705 49.7084C49.4705 49.9218 49.4018 50.3485 49.4018 50.4907L49.2585 50.8463C49.1182 51.2018 48.8346 51.5574 48.763 51.7707L48.1241 52.6952C47.9838 52.9086 47.9838 52.7663 47.9838 52.6952C47.9809 52.5501 47.9551 52.4051 47.9122 52.2685C47.8176 52.0154 47.746 51.7537 47.7002 51.4863C47.7002 51.2701 47.7231 51.0568 47.7689 50.8463V50.9174ZM50.4674 52.6241C50.4674 52.9086 50.3958 52.6952 50.3242 52.6241L49.8286 52.0552C49.6023 51.7707 49.4791 51.4209 49.4734 51.0596C49.4734 50.9174 49.545 51.0596 49.6166 51.1307L49.9002 51.4152C50.0406 51.4863 50.1838 51.2018 50.2554 50.9174V50.6329C50.3242 50.2773 50.6106 49.3529 50.6794 48.9973C50.7481 48.6417 50.751 49.0684 50.751 49.1395C50.8169 49.3472 50.8427 49.5634 50.8226 49.7796C50.8255 50.1636 50.7768 50.5476 50.6794 50.9174L50.539 51.2729C50.413 51.711 50.3872 52.1747 50.4674 52.6241ZM48.551 46.7928C48.5939 46.6022 48.6942 46.4287 48.8346 46.295C48.8632 46.2751 48.889 46.2495 48.9033 46.2182C48.9176 46.1869 48.9291 46.1527 48.9291 46.1158C48.9291 46.0816 48.9205 46.0475 48.9033 46.0134C48.8861 45.9821 48.8632 45.9565 48.8346 45.9366C48.7601 45.8569 48.7114 45.7574 48.6913 45.6521C48.677 45.5469 48.6913 45.4416 48.7257 45.3421C48.763 45.2425 48.8231 45.1543 48.9033 45.086C49.0466 44.8016 49.4018 44.6594 49.4705 44.5882C49.5421 44.5171 49.6138 44.5882 49.6138 44.6594C49.6138 44.7305 49.5421 44.8016 49.5421 44.8016C49.5421 44.8016 49.3302 44.9438 49.2585 45.086L49.0466 45.3705C48.9749 45.655 49.2585 45.7972 49.4018 45.8683L49.8973 46.3661C50.0377 46.5083 49.8973 46.935 49.8973 46.935L49.4705 47.575C49.3216 47.7542 49.2442 47.9818 49.2585 48.2151C49.2585 48.4995 49.4018 48.2862 49.4018 48.2862L49.6138 47.8595L50.2526 47.0061H50.3213C50.3414 46.9606 50.3528 46.9122 50.3528 46.8639C50.3528 46.8155 50.3414 46.7672 50.3213 46.7217C50.3213 46.5794 50.3929 46.5083 50.4645 46.5083C50.5362 46.5083 50.6049 46.5794 50.7481 46.5794L51.387 46.8639C51.8825 47.0061 51.9541 46.8639 52.0258 46.7928C52.0974 46.7217 52.169 46.2239 52.169 46.2239C52.2005 46.1072 52.2234 45.9878 52.2406 45.8683C52.3094 45.7972 52.381 45.9394 52.381 45.9394C52.381 45.9394 52.381 46.0816 52.4526 46.1527C52.5242 46.2239 52.381 46.4372 52.381 46.6505C52.3638 46.77 52.3409 46.8895 52.3094 47.0061H52.2406C52.1919 47.0801 52.1289 47.1427 52.0573 47.1939C51.9828 47.2422 51.8997 47.2763 51.8138 47.2906H51.3898C51.2466 47.2906 51.3898 47.3617 51.4586 47.4328C51.5302 47.5039 51.4586 47.6461 51.4586 47.7173L51.1034 48.2862C51.0375 48.3487 50.9544 48.3914 50.8656 48.4028C50.7768 48.4142 50.6851 48.3999 50.6049 48.3573L50.1809 48.2151C50.1093 48.2151 50.1093 48.1439 50.2526 48.0017H50.8914L51.1062 47.6461C51.175 47.5039 51.0346 47.5039 50.963 47.5039C50.8914 47.4755 50.8169 47.4669 50.7395 47.4812C50.6622 47.4954 50.5935 47.5267 50.5362 47.575C50.2153 47.7116 49.9632 47.9676 49.8257 48.2862C49.7054 48.528 49.6567 48.7982 49.6854 49.0684C49.6854 49.3529 49.6138 49.2818 49.6138 49.2818L49.1898 48.9262C48.9778 48.6673 48.8775 48.3345 48.9062 48.0017C48.9062 47.8595 49.2614 47.4328 49.2614 47.3617C49.3044 47.3133 49.333 47.2564 49.3445 47.1939C49.3559 47.1313 49.3531 47.0687 49.333 47.0061C49.3359 46.9691 49.333 46.9293 49.3187 46.8923C49.3072 46.8554 49.2872 46.8212 49.2614 46.7928L48.9778 46.6505C48.9062 46.6505 48.8374 46.8639 48.7658 47.0061C48.6942 47.2195 48.9778 47.3617 48.9778 47.3617C48.9778 47.3617 48.9062 47.4328 48.8374 47.3617H48.6226C48.5538 47.3617 48.5538 47.1483 48.5538 47.0061V46.8639L48.551 46.7928ZM48.9778 42.3837L49.4046 41.957C49.4734 41.8859 49.545 42.0282 49.545 42.0993C49.4877 42.1818 49.4648 42.2842 49.4734 42.3837L49.1898 42.7393C49.0494 42.8104 48.9778 43.0949 48.9778 43.2371C48.995 43.5955 49.0408 43.9511 49.121 44.3038C49.121 44.5171 48.9778 44.446 48.9778 44.446C48.9778 44.446 48.8374 44.2327 48.8374 44.1616C48.7143 43.8686 48.6656 43.5528 48.6942 43.2371C48.7114 42.9327 48.8117 42.6397 48.9778 42.3837ZM50.751 45.5838V45.7261C50.6794 45.8683 50.6078 45.7972 50.539 45.7261C50.4674 45.655 50.3958 45.5127 50.3242 45.3705C50.2583 45.2596 50.2096 45.1401 50.1838 45.0149H50.3958L50.751 45.2994C50.7968 45.362 50.8226 45.4359 50.8226 45.5127L50.751 45.5838ZM51.8166 45.7261H51.1062C51.0346 45.7261 50.963 45.7261 51.0346 45.5838V45.4416C51.1062 45.3705 51.0346 45.3705 51.3182 45.4416L51.745 45.5838L51.8166 45.7261ZM50.0406 43.0237C50.2554 43.0949 50.3958 43.2371 50.3958 43.3793C50.3958 43.5215 50.4674 43.4504 50.539 43.4504C50.6078 43.4504 50.6794 43.3082 50.751 43.3082C50.8226 43.3082 50.8226 43.4504 50.8226 43.5927C50.8226 43.7349 51.2466 43.6638 51.2466 43.6638C51.2466 43.6638 51.3898 43.806 51.3182 43.806C51.2924 43.8828 51.2437 43.9482 51.1807 43.9994C51.1177 44.0506 51.0432 44.0791 50.963 44.0904C50.8369 44.1587 50.6908 44.1815 50.5476 44.1559C50.4073 44.1303 50.2783 44.0563 50.1838 43.9482C50.0406 43.8771 50.0406 43.6638 50.0406 43.5927C50.0177 43.3167 49.8916 43.0636 49.6854 42.8815L50.0406 43.0237ZM50.751 41.8859L50.963 41.7437H51.0346C51.1062 41.6726 51.1062 41.6726 51.175 41.7437H51.2466C51.2953 41.8575 51.3182 41.9798 51.3182 42.0993C51.3182 42.6682 51.2466 42.4548 51.175 42.4548L50.8226 42.0993C50.7739 42.0566 50.7166 42.0281 50.6536 42.0168C50.5906 42.0054 50.5276 42.0082 50.4674 42.0281H50.3958C50.4244 41.9599 50.476 41.903 50.539 41.8632C50.602 41.8262 50.6765 41.8063 50.751 41.8148V41.8859ZM51.8166 43.7349C51.8166 43.5927 51.8883 43.7349 51.8883 43.7349L52.1002 44.0193C52.3122 44.3038 52.5271 43.806 52.5271 43.806C52.5271 43.806 52.5958 43.7349 52.5958 43.806V44.1616C52.5958 44.3749 52.7391 44.2327 52.8107 44.2327C52.8794 44.2327 53.0943 44.2327 53.2346 44.3038L53.5182 44.5171H53.0943C52.994 44.5228 52.8995 44.5513 52.8107 44.5996C52.7247 44.6508 52.6502 44.7191 52.5958 44.8016C52.4726 44.8585 52.3323 44.8642 52.2005 44.8272C52.0716 44.7874 51.9599 44.7049 51.8854 44.5882C51.7594 44.3237 51.7364 44.0193 51.8166 43.7349ZM52.6674 43.0237L53.0227 42.7393C53.0943 42.6682 53.2346 42.6682 53.2346 42.7393C53.2346 42.8104 53.3779 43.166 53.3779 43.3793C53.3779 43.5927 53.3062 43.5215 53.3062 43.4504L53.0943 43.166C53.0456 43.1233 52.9883 43.0949 52.9253 43.0835C52.8622 43.0721 52.7992 43.0749 52.7391 43.0949C52.4555 43.2371 52.5958 43.166 52.6674 43.0237ZM53.9479 44.9438C53.9966 44.8585 54.0195 44.7589 54.0167 44.6594V44.1616C54.0167 44.0193 54.1599 43.9482 54.2315 43.8771C54.3003 43.806 54.3003 44.0193 54.3003 44.0904V45.1572C54.3003 45.2283 54.0883 45.2283 54.0883 45.2994L53.4495 45.7972L52.9539 46.0105C52.8135 46.0105 52.9539 45.8683 52.9539 45.8683L53.2375 45.5838L54.0167 44.9438H53.9479ZM80.8496 65.5668C80.9212 65.4957 81.2048 65.4246 81.3451 65.2112C81.4884 64.9979 81.4884 64.9979 81.2764 64.7846C81.0615 64.5712 80.7779 64.3579 80.9212 63.9312C81.222 63.0238 81.603 62.142 82.0556 61.3C82.1959 61.1578 82.4108 60.8733 82.4795 60.8733C82.5196 60.7567 82.5425 60.6372 82.5511 60.5177C82.6686 59.8777 82.9636 59.286 83.4019 58.811C83.4736 58.7399 83.6855 58.5265 83.5452 58.811C83.1269 59.5449 82.9522 60.3926 83.0467 61.2289C83.061 61.3796 83.1098 61.5247 83.19 61.6556C83.19 61.7978 83.2616 62.0111 83.4019 61.6556C83.548 61.3 83.74 60.9672 83.9691 60.66C84.1296 60.3556 84.1811 60.0029 84.1124 59.6644C84.0236 59.4852 83.9749 59.2946 83.9691 59.0955H84.0407C84.1124 59.0955 84.3244 59.3088 84.3244 59.8066C84.3244 60.3044 84.396 61.1578 84.7483 61.5844C85.1035 62.0111 84.8915 61.94 84.9632 61.5133C85.0749 61.2175 85.1465 60.9046 85.1751 60.5888C85.3413 60.1849 85.39 59.7412 85.3155 59.3088C85.1551 59.0187 85.0348 58.7086 84.9603 58.3843V58.0287C84.9603 58.0287 84.9603 57.8154 85.029 58.0999C85.1007 58.3843 85.6679 59.5221 86.3067 59.5221C86.4814 59.5278 86.6533 59.4852 86.8051 59.397C86.9569 59.3088 87.0772 59.1808 87.1603 59.0243C87.2319 58.8821 87.3723 58.5266 87.1603 58.5977C87.0429 58.6602 86.9082 58.6802 86.7793 58.6546C86.6504 58.629 86.533 58.5578 86.4499 58.4554C86.3468 58.4071 86.258 58.3388 86.1835 58.2535C86.1119 58.1681 86.0574 58.0657 86.0259 57.9576C86.0259 57.8865 85.9543 57.6021 86.2379 57.8154C86.5215 58.0288 86.5215 58.2421 86.9483 57.8865C87.252 57.5822 87.4955 57.2209 87.6588 56.8198C87.7848 56.4017 87.8793 55.9721 87.9424 55.5398C88.014 54.6722 88.2546 53.8273 88.6528 53.0508C88.8103 52.7891 89.0023 52.5501 89.22 52.3396C89.22 52.2685 89.432 52.1974 89.2887 52.4108L89.0051 52.8374C88.9364 52.9086 88.7932 53.0508 89.0767 53.193C89.558 53.3466 90.0679 53.395 90.5692 53.3352H91.208C91.208 53.3352 91.42 53.4064 91.208 53.4064L89.9361 53.6197H88.9421C88.8705 53.6197 88.7273 53.5486 88.6585 53.6908C88.4952 54.4674 88.5181 55.2724 88.7273 56.0376C88.8161 56.1457 88.882 56.2708 88.9163 56.4045C88.9507 56.5382 88.9622 56.6804 88.9393 56.8198C88.9393 56.8909 88.8676 56.8909 88.8676 56.962C88.7273 57.3119 88.6098 57.6675 88.5124 58.0287C88.5124 58.171 88.4408 58.5977 89.1512 58.811L92.7005 59.8777C92.7836 59.8777 92.8666 59.9033 92.9297 59.9545C92.9927 60.0086 93.0385 60.0797 93.0557 60.1622C93.1646 60.293 93.3135 60.3869 93.4797 60.4239C93.6487 60.4637 93.8206 60.4466 93.9781 60.3755L94.6169 60.091C94.6885 60.0199 94.9721 59.9488 94.7573 60.091C94.6083 60.2191 94.5081 60.3954 94.4737 60.5888C94.4021 60.7481 94.3534 60.916 94.3333 61.0866C94.2617 61.0866 94.1901 61.2289 94.1901 61.3711L82.4079 66.2068C82.1702 65.9707 81.878 65.7972 81.5571 65.709L80.9183 65.5668C80.8467 65.6379 80.6347 65.5668 80.8467 65.4957L80.8496 65.5668ZM91.5002 54.4731C91.7122 54.5442 92.4942 55.1842 93.0614 54.8286C93.1187 54.8059 93.1703 54.7661 93.2075 54.7149C93.2448 54.6636 93.2677 54.6068 93.2734 54.5442C93.345 54.5442 93.345 54.4019 93.2047 54.4019C93.0614 54.4019 92.4226 54.3308 92.2823 53.9042L92.139 53.5486C92.139 53.5486 92.0703 53.4064 92.4226 53.4775C93.0385 53.5287 93.6601 53.5031 94.2703 53.4064C94.3419 53.3352 94.5539 53.4064 94.4823 53.0508C94.3391 52.5644 94.3391 52.0438 94.4823 51.5574L94.6255 51.3441L94.9091 51.0596C94.9091 51.0596 95.1211 50.9885 95.0495 51.1307C94.9635 51.2303 94.912 51.3554 94.9091 51.4863C94.9091 51.4863 94.6971 52.553 94.9779 52.9797C95.2615 53.4064 95.4047 54.0464 98.0315 54.4731C98.3151 54.5442 102.432 55.4687 102.787 55.9665L102.999 56.322C103.07 56.4642 102.999 56.6776 103.354 56.4643L104.064 56.1798L104.42 56.0376C104.42 56.0376 104.632 56.0376 104.491 56.1087C104.351 56.1798 104.064 56.5354 104.064 56.8198C104.059 56.8852 104.07 56.9507 104.093 57.0132C104.119 57.073 104.156 57.1299 104.208 57.1754L97.1808 60.0199L96.7539 59.8777C96.4188 59.707 96.0607 59.5876 95.6883 59.5221L95.4047 59.6644C95.4047 59.6644 95.2615 59.6644 95.4047 59.5221C95.5823 59.4197 95.7255 59.2718 95.8315 59.0955C95.9003 59.0243 96.0435 58.8821 95.8315 58.811H94.4107L93.9838 58.6688L91.569 57.6021L91.0734 57.3887C91.0018 57.3887 91.0018 57.3176 91.0734 57.1043V56.8198C91.145 56.4927 91.145 56.1513 91.0734 55.8242C91.0591 55.7161 91.0104 55.6166 90.933 55.5398C90.933 55.5398 90.8614 55.3975 91.0734 55.4687C91.4315 55.6422 91.7122 55.9465 91.8554 56.322C91.9958 56.5354 92.139 57.1043 92.2106 56.4643C92.331 56.0888 92.3052 55.682 92.139 55.3264L91.4286 54.6153C91.357 54.5442 91.0734 54.2597 91.5002 54.4731ZM97.4615 46.7217C97.4615 46.7217 98.8823 47.3617 98.9511 48.4995C99.0227 49.6373 99.0227 49.3529 99.0227 49.424C99.0227 49.4951 98.9511 49.7796 98.8823 49.424C98.7935 48.6645 98.4412 47.959 97.8883 47.4328L97.1779 46.7928C97.1063 46.7217 96.7511 46.4372 97.4615 46.7217ZM94.9062 40.5348C94.9062 40.4636 95.4734 40.1792 95.4734 40.1792C95.7198 40.0825 95.9919 40.0597 96.2526 40.1081C96.6078 40.1081 96.5362 40.3214 96.5362 40.3925C96.5362 40.4636 96.393 40.677 96.2526 40.8903L95.8974 41.1037H95.4018L94.8346 40.8192C94.6943 40.7481 94.8346 40.677 94.9062 40.6059V40.5348ZM98.8107 41.0326C98.8107 41.0326 99.1659 41.0326 99.1659 41.1748C99.2347 41.2459 99.2347 41.317 99.0943 41.317C98.9511 41.317 98.8107 41.4592 98.6704 41.317C98.6274 41.28 98.6045 41.2288 98.5987 41.1748L98.8107 41.0326ZM127.632 94.0123L104.488 70.9003L127.632 47.7173L106.476 56.322H106.336C106.193 56.2509 105.766 55.8242 105.554 55.8242H104.915C104.915 55.8242 104.7 55.682 104.984 55.6109L105.411 55.4687C105.482 55.3975 105.766 55.3264 105.551 55.1842L105.268 55.042C104.683 55.1074 104.093 55.0107 103.563 54.7575C102.429 54.3308 98.8079 52.553 99.0198 51.6996C99.5011 50.8064 99.7446 49.8023 99.7303 48.784C99.6873 48.2833 99.6157 47.7827 99.5154 47.2906C99.5154 47.1483 99.4467 46.935 99.4467 46.8639C99.4467 46.7928 99.5154 46.5083 99.6586 46.8639C100.074 47.5039 100.318 48.2378 100.369 48.9973C100.381 49.1395 100.403 49.2846 100.441 49.424C100.441 49.424 100.441 49.7796 100.724 49.2818C100.968 48.747 101.18 48.2037 101.363 47.6461C101.503 47.2308 101.601 46.8013 101.647 46.3661C101.718 45.9394 101.718 44.9438 101.787 44.6594C101.821 44.4233 101.919 44.2014 102.071 44.0193C102.142 43.9482 102.286 43.6638 102.286 44.0193C102.286 44.3749 102.36 45.3705 102.36 45.5127C102.429 45.7289 102.549 45.9252 102.715 46.0816L102.999 46.3661C103.354 46.8639 103.921 47.575 104.064 47.8595L104.42 48.2862C104.42 48.3573 104.42 48.4284 104.351 48.4284C104.279 48.4284 104.136 48.9262 104.491 49.1395C104.723 49.3017 104.993 49.3984 105.27 49.424L105.626 49.5662C105.697 49.6373 105.766 49.7084 105.626 49.7084C105.485 49.7084 104.915 49.7084 104.915 49.8507C104.915 49.9929 104.844 50.3485 104.844 50.4907C104.841 50.5533 104.861 50.6187 104.901 50.6699C104.941 50.7211 104.995 50.7581 105.058 50.7751L106.336 51.1307C106.476 51.2018 106.903 51.3441 107.047 51.2729C107.187 51.2018 107.256 51.2018 107.115 50.9174L106.832 50.2062C106.76 50.1351 106.62 49.9218 106.476 49.9218C106.336 49.9218 106.193 49.8507 106.121 49.7084C106.052 49.5662 105.909 49.5662 106.193 49.5662H106.832C106.9 49.5662 106.972 49.4951 106.9 49.3529C106.898 49.1225 106.823 48.9006 106.688 48.7128C106.075 48.3687 105.58 47.8481 105.268 47.2195L104.772 46.3661C104.339 45.4558 103.841 44.5769 103.28 43.7349C103.139 43.5927 102.712 43.0237 102.357 43.0237C102.145 42.9868 101.93 43.0095 101.733 43.0835C101.532 43.1574 101.357 43.2854 101.22 43.4504C100.613 44.3209 99.8964 45.1088 99.0915 45.7972C99.0915 45.8683 99.0198 45.8683 98.8795 45.7261C98.4412 45.2397 97.9657 44.7874 97.4586 44.3749C97.0347 44.1075 96.7081 43.7093 96.5362 43.2371C96.4646 43.0949 96.4646 43.0237 96.393 43.0237C95.7456 43.0209 95.1211 42.7933 94.6198 42.3837L94.3362 42.2415C94.8776 42.4491 95.4706 42.5003 96.0406 42.3837C96.4646 42.3467 96.8914 42.3467 97.3183 42.3837L97.8138 42.5259L98.1719 42.6682C98.3696 42.9043 98.6474 43.0579 98.9511 43.0949C99.0084 43.0949 99.0628 43.0835 99.1115 43.0579C99.1602 43.0323 99.2032 42.9981 99.2347 42.9526C99.2347 42.8815 99.2347 42.8104 99.0943 42.6682C98.8394 42.4264 98.6016 42.1647 98.3839 41.8859C98.3839 41.8859 98.169 41.6726 98.5243 41.6726C98.8795 41.6726 99.5183 41.8148 99.6586 41.6015C99.756 41.4536 99.8047 41.28 99.8019 41.1037H99.7331C99.6615 40.9614 99.6615 40.8192 99.3063 40.8192C98.8795 40.8249 98.4584 40.6997 98.1003 40.4636L96.8943 39.7525L96.4675 39.4681V39.2547C96.5591 38.7142 96.6078 38.1681 96.6107 37.6191C96.5878 37.4001 96.5391 37.1867 96.4675 36.9791C96.4675 36.908 96.3271 36.6946 96.2555 37.0502C96.2182 37.3659 96.1466 37.676 96.0435 37.9747C96.0435 38.1169 95.7599 38.9703 95.7599 39.0414C95.7599 39.1125 95.7599 39.3258 95.6883 39.3258C95.6167 39.3258 95.5451 39.3969 95.5451 39.1836C95.5078 38.8223 95.4362 38.4668 95.3331 38.1169L95.1211 37.9747C94.9865 38.2136 94.912 38.481 94.9091 38.7569C94.8547 38.9191 94.8318 39.0869 94.8375 39.2547H94.7659C94.6971 39.2547 94.5539 39.3258 94.5539 39.1125C94.5654 38.9418 94.5424 38.774 94.4823 38.6147C94.3419 38.4725 94.1271 38.1169 94.0583 38.1169C93.9867 38.1169 93.7747 37.9747 93.7031 38.1169V38.3302C93.6229 38.7342 93.6487 39.1495 93.7747 39.5392C93.7747 39.6103 93.9151 39.8947 93.9151 39.9659C93.9151 40.037 94.0583 40.037 93.9867 40.1081C93.9151 40.1792 93.7031 40.6059 93.4195 41.317C93.2591 41.6527 93.1646 42.0139 93.1359 42.3837C93.0643 42.6682 92.9239 44.5171 93.9151 45.0149C93.9982 45.0946 94.0984 45.1572 94.2101 45.1941C94.3219 45.2311 94.4393 45.2453 94.5539 45.2311C94.6714 45.2197 94.7802 45.1771 94.8805 45.1145C94.9779 45.0519 95.0609 44.9694 95.124 44.8699C95.1727 44.7788 95.2443 44.7049 95.3359 44.6565C95.3359 44.6565 95.4076 44.5143 95.4792 44.6565C95.6024 44.7902 95.6969 44.9467 95.757 45.1173C95.8172 45.288 95.843 45.4701 95.8344 45.6521C95.7828 45.874 95.7141 46.0873 95.6195 46.2921C95.6195 46.2921 95.1956 46.6477 95.2643 46.7899C95.4104 47.0858 95.6654 47.3162 95.9748 47.43C96.1151 47.5011 96.2583 47.6433 96.4703 47.5011C96.6823 47.3588 96.6136 47.3588 96.6823 47.43C96.7167 47.4698 96.7367 47.521 96.7367 47.5722C96.7367 47.6234 96.7167 47.6746 96.6823 47.7144C96.6136 47.7855 96.3987 48.2833 95.9031 48.2833H94.6255C94.6484 48.4369 94.6341 48.5962 94.5854 48.7441C94.5367 48.8921 94.4536 49.0286 94.3419 49.1367C94.17 49.3671 93.981 49.5804 93.7747 49.7767L93.4911 49.99C93.4911 50.0612 93.4195 50.0612 93.4911 49.8478C93.5341 49.5861 93.5083 49.3159 93.4195 49.0656L92.9239 47.8566C92.8838 47.5949 92.9096 47.3247 92.9927 47.0744C93.0786 46.8497 93.2276 46.6534 93.4195 46.5055L93.5627 46.3632C93.5799 46.3632 93.6 46.3718 93.6114 46.3832C93.6258 46.3974 93.6315 46.4144 93.6315 46.4344C93.6286 46.5652 93.5771 46.6904 93.4911 46.7899C93.3565 47.0516 93.3078 47.3503 93.3479 47.6433C93.388 48.0188 93.5083 48.3857 93.7031 48.71L93.8435 48.9945C93.8435 48.9945 93.9151 49.1367 94.0583 48.9233C94.17 48.6787 94.2187 48.4085 94.1987 48.1411C94.1128 47.8851 94.0411 47.6234 93.9867 47.3588C93.9409 47.2991 93.9151 47.2223 93.9151 47.1455C93.9151 47.1455 93.9151 47.0744 93.9867 47.2166C94.3648 47.5295 94.8003 47.7713 95.2643 47.9278H95.6912C95.7628 47.8566 95.8344 47.8566 95.6912 47.7855L95.124 47.2877C94.912 47.0744 94.7687 46.7899 94.3448 46.7188C93.918 46.6477 94.2732 46.6477 94.4164 46.5766L94.8346 46.3661C95.0438 46.2836 95.2185 46.1328 95.3302 45.9394C95.3761 45.8654 95.4047 45.783 95.4162 45.6976C95.4276 45.6123 95.4219 45.5241 95.4018 45.4416C95.4018 45.3705 95.3302 45.2283 95.1182 45.3705C95.0266 45.4814 94.9005 45.5611 94.7602 45.5981C94.6198 45.6379 94.4708 45.6322 94.3362 45.5838C94.193 45.5838 93.2018 45.5127 92.775 43.9482C92.6203 42.9925 92.7177 42.0111 93.0586 41.1037C93.1015 41.0667 93.1245 41.0155 93.1302 40.9614C93.2104 40.64 93.3307 40.33 93.4854 40.037C93.4854 39.9658 93.557 39.8236 93.4138 39.7525C93.2705 39.6814 93.2018 39.5392 93.2018 39.4681C92.8982 39.3941 92.583 39.3941 92.2794 39.4681L91.569 39.7525L91.0018 39.6103C90.933 39.6103 90.7182 39.6103 90.7898 39.7525C90.8299 39.9175 90.9216 40.0683 91.0476 40.182C91.1737 40.2958 91.3312 40.3698 91.5002 40.3925C91.844 40.4949 92.2106 40.5177 92.5659 40.4636C92.6375 40.4636 92.7778 40.3925 92.6375 40.5348C92.4112 40.7851 92.1133 40.9586 91.7867 41.0326H91.4315L91.0046 41.317L90.7927 41.4592L90.0822 41.7437C90.0106 41.7437 89.939 41.8148 90.0822 41.8859L90.5062 42.2415C90.5578 42.2955 90.6236 42.3382 90.6924 42.3667C90.764 42.3923 90.8385 42.4036 90.9158 42.3979C90.9932 42.3923 91.0648 42.3667 91.1278 42.3268C91.1908 42.287 91.2481 42.2358 91.2882 42.1704C91.3799 41.9656 91.5002 41.7721 91.6434 41.6015L91.9271 41.3881C91.9987 41.3881 92.0703 41.4592 91.9987 41.5304L91.5031 42.1704C91.2625 42.5601 90.976 42.9185 90.6523 43.2371C90.5664 43.3139 90.4661 43.3736 90.3544 43.4106C90.2455 43.4476 90.1281 43.4618 90.0135 43.4504C89.8703 43.4504 89.7299 43.4504 89.8015 43.5215C89.813 43.6296 89.8531 43.7292 89.9161 43.8174C89.9791 43.9056 90.0622 43.9738 90.1567 44.0222C90.3716 44.0933 90.5119 44.2355 91.0075 43.6666L91.4343 43.311C91.5059 43.2399 91.6463 43.0977 91.5747 43.311L91.0791 44.1644C90.5606 44.537 90.1653 45.0576 89.9447 45.6578C89.876 45.8655 89.876 46.0902 89.9447 46.2978H90.2283C90.5205 46.0987 90.7812 45.8598 91.0075 45.5867C91.1507 45.5156 91.3627 45.4445 91.506 44.9467C91.6463 44.4489 91.6463 44.2355 91.7895 44.1644C91.9299 44.0933 92.0015 43.88 92.0015 44.1644C92.0072 44.4318 91.9586 44.6992 91.8612 44.9467C91.569 45.4046 91.2367 45.8342 90.8671 46.2267C90.8671 46.2978 90.8671 46.2978 90.7955 46.2978C90.4919 46.7643 90.3171 47.3048 90.2999 47.8623C89.071 48.1439 87.8622 48.4995 86.6791 48.929C85.6994 49.3443 84.8428 50.0043 84.1926 50.8491C84.1926 50.9202 83.9806 51.0624 83.909 51.2047L83.7686 51.5602L83.3332 52.6241C83.2644 52.7663 83.1212 53.0508 82.9092 53.1219C82.6972 53.193 82.342 53.2641 82.1988 53.0508C82.0814 52.883 82.0212 52.6867 82.0212 52.4819C82.0212 52.2771 82.0814 52.0779 82.1988 51.913L82.342 51.5574C82.6944 50.9316 83.0983 50.3371 83.548 49.7796C83.8173 49.478 84.1296 49.2163 84.4704 48.9973C84.754 48.9262 85.9629 48.9262 86.6017 48.2862C86.7994 48.087 86.9455 47.8424 87.0257 47.575C87.0257 47.5039 87.0257 47.2906 86.8853 47.4328C86.7908 47.521 86.6762 47.5836 86.553 47.6205C86.4327 47.6575 86.3009 47.6661 86.1749 47.6461C85.8197 47.6461 85.3957 47.6461 85.2525 47.7884L84.8973 48.0728C84.8257 48.0728 84.6853 48.1439 84.8257 47.9306C84.9231 47.7343 85.0634 47.5636 85.2353 47.43C85.4072 47.2934 85.6048 47.1967 85.8197 47.1483C86.4785 47.0374 87.1231 46.8468 87.7361 46.5794L88.1601 46.295C88.2804 46.1271 88.3549 45.9309 88.3749 45.7261C88.3749 45.655 88.4465 45.5127 88.3033 45.5127C88.1601 45.5127 87.7361 45.5127 87.5929 45.6549L86.9541 46.2239L86.6705 46.4372H86.3869C86.3869 46.4372 86.172 46.4372 86.3869 46.295H86.4556C86.6705 46.0105 88.6585 44.1616 88.6585 42.6682C88.7244 42.0879 88.5726 41.5048 88.2317 41.0326L87.8765 40.8192C87.6387 40.6884 87.3694 40.6201 87.0973 40.6201C86.8252 40.6201 86.5559 40.6884 86.3181 40.8192C86.2379 40.8818 86.1462 40.9273 86.0488 40.9501C85.9514 40.9757 85.8483 40.9785 85.7509 40.9586C85.4673 40.879 85.1637 40.9017 84.9001 41.0297C84.7684 41.115 84.6681 41.2402 84.6165 41.3853L83.9777 42.5942C83.8374 42.6653 83.6941 42.9498 83.4821 43.0209C83.2702 43.092 83.1986 43.1631 83.3389 43.2342C83.4821 43.3054 83.6941 43.3765 84.3329 43.092L84.7569 42.8076C84.8285 42.8076 84.9001 42.8076 84.8285 42.8787C84.5277 43.1574 84.2842 43.4959 84.1181 43.8743C83.9663 44.3664 83.9921 44.8926 84.1868 45.3677C84.3301 45.5099 84.3301 45.7943 84.6853 45.7943C85.0405 45.7943 84.754 45.7943 84.754 45.6521C84.5449 45.2084 84.4962 44.7049 84.6137 44.2298C84.7368 43.9681 84.9059 43.7263 85.1092 43.5187C85.1809 43.5187 85.3929 43.3765 85.3212 43.5898C85.178 43.9255 85.1035 44.2896 85.1092 44.6565C85.1092 44.8699 85.1809 45.2965 85.5361 45.3677C85.8913 45.4388 85.7481 45.5099 85.6765 45.2254C85.5991 45.069 85.5647 44.8926 85.5791 44.7191C85.5934 44.5456 85.6507 44.3749 85.7481 44.2298C85.9916 43.7548 86.1806 43.2542 86.3153 42.7364C86.3153 42.3809 86.3153 41.812 86.5989 41.7408C86.8825 41.6697 87.1661 41.6697 87.3093 42.0964C87.4955 42.6312 87.4726 43.2172 87.2405 43.732C86.659 44.665 85.9686 45.5241 85.1809 46.2921L82.0584 49.7056C81.8465 50.0612 81.348 50.7723 80.9928 51.4834H80.9212C80.8037 51.7821 80.7092 52.0922 80.6376 52.4079C80.5774 52.5331 80.5545 52.6725 80.5688 52.809C80.5832 52.9455 80.629 53.0764 80.7092 53.1902C80.8438 53.3808 80.9412 53.5998 80.9928 53.8302C80.9212 53.8302 80.9928 54.0435 80.8496 54.0435C80.7092 54.0435 79.8555 53.8302 79.5719 54.6124C79.3886 55.0534 79.1738 55.48 78.9331 55.8925C78.7899 56.0347 78.6495 56.2481 78.4376 56.3192H78.2227C78.2943 56.4614 78.3659 56.6747 78.5779 56.6747H78.8615C79.2167 56.6747 79.7839 56.5325 80.2824 55.5369C80.7808 54.5413 80.9928 54.5413 81.2048 54.5413H81.56C81.56 54.5413 81.7004 54.5413 81.56 54.6836C81.4168 54.8258 80.6376 55.4658 80.6376 56.0347C80.6376 56.6036 80.7092 56.3903 80.8496 56.6747C80.8983 56.7914 80.9756 56.8909 81.0759 56.9649C81.1761 57.0388 81.2936 57.0872 81.4168 57.1014C81.56 57.1014 81.984 57.1725 82.0556 56.8881V56.6747C82.0556 56.6036 82.0556 56.5325 81.9123 56.3903C81.8264 56.2566 81.792 56.0945 81.8178 55.9352C81.8436 55.7759 81.9295 55.6336 82.0556 55.5341L82.978 54.7518C83.0152 54.7518 83.0496 54.7376 83.0782 54.7092C83.1069 54.6807 83.1212 54.6466 83.1212 54.6096H83.1928L83.4048 54.3251C83.4048 54.254 83.4048 54.1829 83.4764 54.3963C83.6999 54.7803 84.015 55.0989 84.3988 55.3207L85.1092 55.7474C85.1809 55.8185 85.3929 55.8897 85.1809 55.8897C84.7598 55.9039 84.3444 55.8072 83.9749 55.6052L83.6913 55.3919C83.6197 55.3919 83.6197 55.3207 83.5509 55.3919L82.7689 56.6719L82.342 57.4598C82.0097 57.8666 81.5657 58.1624 81.0644 58.3132L80.0704 58.7399C79.9988 58.811 79.9272 58.8821 79.9988 59.0243C80.0074 59.616 79.9845 60.2105 79.9272 60.8022C79.8555 61.2289 79.5719 63.1489 79.5032 63.5045C79.4287 63.8032 79.3084 64.0933 79.148 64.3579C79.0076 64.6423 78.724 64.9979 78.724 65.2824C78.724 65.5668 78.7928 65.8513 79.148 65.8513L79.7152 65.709H80.0704C80.142 65.7802 80.2108 65.7802 80.0704 65.8513C79.824 66.0191 79.6464 66.2723 79.5748 66.5624C79.5691 66.7786 79.592 66.9919 79.6436 67.2024L71.339 70.687L94.4794 14.2227L71.339 37.6191L48.1958 14.3649L71.339 70.8292L64.5957 67.9847H64.6673C64.7046 67.7685 64.6817 67.5466 64.5957 67.3447L64.0256 66.5624C63.891 66.3775 63.8165 66.1528 63.8137 65.9224C63.8137 65.8513 63.8137 65.5668 63.7421 65.4957C63.6762 65.3848 63.6275 65.2653 63.6017 65.1401C63.6017 64.9979 63.5301 64.8557 63.6733 64.9979C64.1259 65.1515 64.5556 65.3677 64.9509 65.6379C65.0225 65.709 65.2345 65.8513 65.3061 65.9935L65.4465 66.2068C65.5181 66.2068 65.5897 66.278 65.5897 66.0646C65.6012 65.9224 65.5811 65.7773 65.5324 65.6436C65.4809 65.5099 65.4064 65.3848 65.3033 65.2852C64.8936 64.9581 64.441 64.6935 63.954 64.503C63.8853 64.503 63.3868 64.2185 63.5301 64.2185H64.1689C64.2376 64.2185 64.8793 64.503 65.2345 64.2896C65.5897 64.0763 65.5897 64.0763 65.7301 63.8629C65.8733 63.6496 65.8017 63.5785 65.6585 63.5785C65.4007 63.752 65.1113 63.8743 64.8077 63.934H64.0973C63.954 63.934 63.8853 63.934 64.0256 63.7918C64.1889 63.7605 64.3436 63.6923 64.4811 63.5955C64.6158 63.4988 64.7275 63.3708 64.8077 63.2257C64.8077 63.1546 64.8764 63.0835 64.8764 62.9413C64.8764 62.7991 64.8077 62.6568 64.7361 62.7991C64.6645 62.9413 64.4525 63.2969 64.1689 63.368C63.7077 63.459 63.2293 63.3822 62.8197 63.1546C62.7509 63.1546 62.3957 63.0124 62.7509 62.9413H63.1749C63.1749 62.8702 63.2465 62.8702 63.2465 62.7991L63.6017 62.5146C63.6017 62.4435 63.6733 62.2302 63.5301 62.159C63.0316 61.8973 62.5761 61.5645 62.1808 61.1635L61.8256 60.7368C61.6051 60.6258 61.3616 60.5746 61.1152 60.5945H60.1928C60.1212 60.5945 59.8376 60.4523 60.1928 60.4523C60.6053 60.4637 61.0149 60.3926 61.3988 60.239C61.6452 60.1935 61.8715 60.0683 62.0376 59.8834C62.1092 59.8123 62.2496 59.7412 62.2496 59.8834C62.2696 60.0427 62.3241 60.1963 62.41 60.3328C62.4959 60.4665 62.6105 60.5832 62.748 60.6685L63.8824 61.2374C64.0944 61.3796 64.5212 61.593 64.6616 61.8774C64.8048 62.1619 64.7332 62.1619 64.8048 62.1619C64.8736 62.1619 64.8736 62.3041 64.9452 62.0908C65.0168 61.8774 65.0168 61.593 65.0168 61.4508C64.9939 61.1777 64.8679 60.9217 64.6616 60.7396L64.4496 60.4552C64.378 60.4552 64.3064 60.384 64.5184 60.384C64.865 60.4381 65.2202 60.3613 65.5124 60.1707C65.584 60.0285 65.796 59.9574 65.796 59.6018C65.8046 59.3401 65.7817 59.0755 65.7244 58.8195C65.6528 58.7484 65.584 58.5351 65.5124 58.7484C65.4093 59.0044 65.2546 59.2377 65.0598 59.434C64.865 59.6302 64.633 59.7838 64.378 59.8862C64.3064 59.8862 63.8824 60.0285 64.0944 59.744C64.358 59.4738 64.5728 59.1609 64.7332 58.8195C64.7361 58.3929 64.7132 57.9662 64.6616 57.5395C64.5728 57.2437 64.4553 56.9564 64.3064 56.6861C63.8309 55.7616 63.1806 54.9424 62.39 54.2683L62.2467 54.126L58.6258 50.997C58.6258 50.98 58.6201 50.96 58.6058 50.9458C58.5943 50.9316 58.5743 50.9259 58.5542 50.9259C58.4855 50.8548 56.8526 49.5747 56.9214 48.6503C56.993 47.7258 56.993 48.0102 57.2766 47.9391C57.5602 47.868 57.7722 47.7258 57.8438 48.0814C57.8266 48.2264 57.8438 48.3715 57.8925 48.5052C57.9412 48.6389 58.0214 48.764 58.1274 48.8608L58.9066 49.8564C59.0068 49.9132 59.087 49.9957 59.1357 50.0981C59.1844 50.2005 59.2045 50.3143 59.1902 50.4253C59.1902 50.4253 59.3334 50.8519 59.4738 50.4253C59.5511 50.0697 59.5282 49.6999 59.405 49.3586C59.405 49.2874 59.2618 49.0741 59.2618 48.9319C59.2618 48.7896 59.1902 48.7185 59.405 48.8608C59.5139 48.8977 59.6113 48.9632 59.6858 49.0513C59.7602 49.1395 59.8089 49.2448 59.829 49.3586C59.8376 49.6231 59.8863 49.8876 59.9693 50.1408C60.1269 50.4196 60.2673 50.7012 60.3962 50.9942L60.7514 51.492L60.9634 51.9187C60.9634 51.9898 61.035 52.4165 61.247 51.9187C61.4589 51.4209 61.5306 51.4209 61.5306 51.1364V50.9942C61.585 50.8463 61.5936 50.687 61.5563 50.5362C61.5162 50.3826 61.436 50.2461 61.3186 50.1408L60.253 49.003C60.1842 48.9319 60.1126 48.6474 60.1842 48.7185C60.2529 48.7897 60.9634 49.4297 61.5334 49.3586C61.6108 49.3642 61.6881 49.3557 61.7626 49.3301C61.8342 49.3074 61.903 49.2675 61.9603 49.2135C61.9603 49.2135 62.1006 49.0713 61.8886 49.0713C61.6738 49.0713 61.6051 49.0713 61.3902 48.8579L60.1126 47.649C60.0582 47.4954 59.9665 47.3617 59.8404 47.2621C59.7144 47.1626 59.5626 47.0971 59.405 47.0801H58.6946L58.411 46.9378C58.179 46.7757 57.9097 46.679 57.6318 46.6534C57.3912 46.6335 57.1477 46.6591 56.9157 46.733C56.6836 46.807 56.4688 46.9236 56.2826 47.0801C56.2826 47.1512 56.2138 47.1512 56.1422 47.2223C55.8615 47.5892 55.7125 48.0387 55.7183 48.5024C55.6724 48.801 55.7011 49.1054 55.7985 49.3927C55.8987 49.6771 56.0649 49.9332 56.2855 50.1408L57.4915 51.0653L57.7808 51.2018C57.8524 51.2729 58.2076 51.4863 58.2764 51.6996C58.348 51.913 58.4196 51.913 58.2764 51.7707C57.8438 51.4607 57.3654 51.2189 56.8584 51.0596H55.5808C55.6524 51.1307 55.6524 51.3441 55.936 51.4863C56.3571 51.8362 56.8813 52.0353 57.4256 52.0552C57.9355 52.1178 58.4368 52.2372 58.918 52.4108L59.4852 52.6952C59.4852 52.7663 59.5568 52.8374 59.4165 52.7663L58.7777 52.6241H57.5659C57.4943 52.553 57.354 52.4819 57.4227 52.6241C57.5172 52.8773 57.6777 53.0991 57.8925 53.2613C58.1073 53.4234 58.3623 53.523 58.6287 53.5486C59.3105 53.5685 59.9865 53.7136 60.6168 53.9753L60.9004 54.2597C61.7941 54.9339 62.5418 55.7787 63.1004 56.7487L63.4556 57.531C63.596 57.8467 63.6934 58.1824 63.7392 58.5266C63.7392 58.5977 63.6704 59.1666 63.5272 59.2377C63.3868 59.3088 63.2436 59.3799 63.172 59.0243C63.1004 58.6688 62.748 57.7443 62.6764 57.531C62.5532 57.2437 62.3842 56.982 62.1808 56.7487C61.2441 55.7332 60.1412 54.8912 58.9152 54.2597L58.7032 54.1175C57.2737 53.5116 55.9188 52.7493 54.6555 51.8419L53.9451 51.1307C53.8734 51.0596 53.8734 50.9885 53.8018 50.9885C53.8018 50.9174 53.7302 50.9174 53.6615 50.9885H53.5898C53.5268 51.3497 53.3807 51.6911 53.163 51.9841C53.0943 51.9841 53.0226 52.2685 52.951 51.8419C52.825 51.5261 52.6818 51.2189 52.5271 50.9174V50.8463C52.4555 50.7751 52.3838 50.704 52.3122 50.8463V50.9885C52.0601 51.5716 52.0114 52.223 52.1719 52.8374C52.2435 52.8374 52.1719 52.9797 52.0286 52.8374C51.8883 52.6952 51.3898 52.4819 51.2494 52.1263C51.1205 51.7622 51.069 51.3725 51.1091 50.9885V50.8463C51.1091 50.8463 51.1091 50.704 51.2494 50.9174L51.6047 51.4863C51.6047 51.5574 51.6763 51.6996 51.7479 51.3441C51.8166 50.9885 51.8166 51.0596 51.8883 50.9174V49.7796C51.8539 49.4012 51.8539 49.0201 51.8883 48.6417C51.8883 48.4995 51.9599 48.2862 51.9599 48.6417C52.1661 49.2789 52.4297 49.8962 52.7391 50.4907L53.0943 50.9885C53.163 51.0596 53.2346 51.2018 53.3062 50.9885C53.4495 50.6272 53.4753 50.229 53.3779 49.8507C53.3779 49.7084 52.8794 48.4284 52.8794 48.0728C52.9195 47.8282 52.9911 47.5892 53.0943 47.3617C53.0943 47.2906 53.2346 47.0772 53.2346 47.4328C53.269 48.1098 53.4638 48.7669 53.8018 49.3529C53.9279 49.552 54.0997 49.7227 54.2974 49.8507C54.369 49.9218 54.4406 50.064 54.5122 49.6373C54.5724 49.3984 54.5867 49.1481 54.5495 48.9034C54.5122 48.6588 54.4292 48.4255 54.3003 48.2151C54.0367 47.8794 53.8419 47.4925 53.7331 47.0772V46.8639C53.7159 46.7188 53.7417 46.5681 53.8047 46.4372C53.8763 46.5083 53.8763 46.7217 54.0883 47.0772C54.1971 47.3503 54.3662 47.5949 54.5839 47.7884L55.0823 48.1439C55.1539 48.215 55.2943 48.3573 55.2943 48.0728C55.3344 47.9164 55.3401 47.7542 55.3143 47.5978C55.2914 47.4385 55.2341 47.2877 55.1511 47.1512H55.0823C54.899 46.9691 54.7557 46.7501 54.6555 46.5112C54.5839 46.2978 54.3719 46.0134 54.3719 45.8C54.3719 45.5867 54.3003 45.4445 54.5151 45.7289C54.8188 46.0418 55.1511 46.3291 55.5091 46.5823L56.0047 46.9378C56.0047 46.9378 56.2196 47.1512 56.1479 46.7956C56.1737 46.4713 56.0993 46.1499 55.936 45.8711C55.6696 45.5469 55.386 45.2368 55.0852 44.9467C54.9419 44.8755 54.6583 44.5911 54.8016 44.6622C55.0766 44.7134 55.3401 44.8101 55.5808 44.9467C55.6667 45.0661 55.7899 45.1543 55.9331 45.1941C56.0763 45.234 56.2282 45.2197 56.3599 45.16C56.5032 45.16 56.8584 45.0178 56.5719 44.8755L55.5779 43.9511C55.5063 43.88 55.3659 43.5244 55.1511 43.6666L54.7958 43.88C54.7242 43.88 54.581 43.88 54.7242 43.6666C54.8646 43.4533 55.2198 43.2399 55.2914 43.0266C55.449 42.7734 55.5005 42.4662 55.4318 42.1732C55.4318 42.1021 55.4318 41.8888 55.0766 42.031C54.9391 42.0338 54.8044 42.068 54.6813 42.1277C54.5581 42.1903 54.4521 42.2785 54.3662 42.3866L53.799 42.9555C53.799 43.0266 53.587 43.0977 53.6586 42.8132C53.7474 42.6568 53.819 42.489 53.8706 42.3154C53.8849 42.2642 53.8878 42.213 53.8734 42.1618C53.8591 42.1106 53.8333 42.0651 53.799 42.031C53.1602 41.5702 52.4698 41.189 51.7422 40.8932C51.5273 40.8932 51.2437 40.8221 51.1034 40.9643L50.8885 41.2487V41.0354C50.9229 40.7993 50.9229 40.5604 50.8885 40.3243C50.8885 40.2531 50.8198 40.1109 50.8198 40.0398C50.8198 39.9687 50.7481 39.7554 50.6049 39.7554C50.4645 39.7554 50.3213 39.6842 50.1809 40.0398C50.0291 40.347 49.9546 40.6912 49.969 41.0354C49.8973 41.1776 49.8973 41.4621 49.8257 41.6043C49.7541 41.7465 49.757 41.6726 49.6882 41.5304C49.671 41.391 49.6023 41.2658 49.4992 41.1748C49.396 41.0838 49.2614 41.0326 49.121 41.0326C48.5739 41.0269 48.0267 40.9785 47.4882 40.8903L47.2762 40.7481C47.2762 40.7481 47.2046 40.677 47.2046 40.8192C47.1989 40.9757 47.2333 41.1321 47.3077 41.2715C47.3822 41.408 47.4939 41.5247 47.6314 41.6015L47.9866 41.7437L48.4106 41.957C48.4822 41.957 48.6226 41.957 48.6226 42.0281C48.6226 42.0993 48.6226 42.0993 48.4822 42.0993C47.9809 42.0509 47.4739 42.0993 46.9898 42.2415C46.7463 42.361 46.5286 42.5316 46.351 42.7393C46.2822 42.7393 46.139 43.0237 46.4226 43.0237C46.5658 43.0664 46.7176 43.0749 46.8637 43.0493C47.0127 43.0237 47.153 42.9669 47.2734 42.8815C47.4596 42.7478 47.683 42.6739 47.9122 42.6682C48.1241 42.6682 48.2674 42.6682 48.2674 42.7393C48.0984 42.9868 47.8463 43.166 47.557 43.2371C47.0614 43.3793 45.9241 43.6638 45.7809 44.1616C45.6405 44.6594 45.7121 44.5882 45.7121 44.5882C45.7121 44.5882 45.7121 44.7305 46.0674 44.6594L47.0614 44.5171C47.2046 44.5228 47.3478 44.5029 47.4796 44.4546C47.6114 44.4062 47.7374 44.3294 47.8406 44.2327L47.9838 44.0904C47.9838 44.3038 47.9122 44.5882 47.2017 44.8727C46.7319 45.0405 46.2822 45.2567 45.8525 45.5127C45.6835 45.6862 45.5832 45.9138 45.5689 46.1527H46.2793C46.6174 46.2011 46.9611 46.1527 47.2734 46.0105L47.6286 45.7261C47.7002 45.7261 47.9122 45.7261 47.7689 45.8683C47.6114 46.0674 47.4194 46.2352 47.2017 46.3661L45.9241 47.0061L45.7121 47.2195C45.6147 47.3105 45.5403 47.4214 45.4916 47.5437C45.4429 47.6661 45.4199 47.7969 45.4285 47.9306C45.4285 48.0017 45.3569 48.0728 45.7838 47.9306C46.3338 47.7997 46.8609 47.5836 47.345 47.2906L47.7002 47.0061L48.1241 46.5083C48.1241 46.4372 48.1958 46.2239 48.2674 46.2239C48.3361 46.2239 48.3361 46.0816 48.2674 46.295C48.3075 46.5339 48.2817 46.7785 48.1958 47.0061L47.9122 47.3617C47.471 47.7201 46.964 47.9846 46.4197 48.1439C45.9213 48.3402 45.4629 48.6304 45.0705 48.9973C45.0705 48.9973 45.0705 49.2106 44.9989 49.0684C44.8012 48.619 44.7754 48.1126 44.9272 47.6461C44.9931 47.5807 45.0304 47.4897 45.0304 47.3987C45.0304 47.3076 44.9931 47.2166 44.9272 47.1512V47.009C44.5262 46.3832 44.1939 45.7147 43.9332 45.0178C43.79 44.4489 43.0824 43.0977 43.8616 42.031L44.1452 41.7465L44.3572 41.5332C44.4718 41.4166 44.5462 41.2687 44.572 41.1065C44.572 40.9643 44.6408 40.7509 44.6408 40.6798C44.7009 40.4978 44.7238 40.3043 44.7124 40.1109C44.7124 40.1109 44.6408 39.8976 44.5004 39.8976C44.2684 39.909 44.0392 39.835 43.8616 39.6842L43.7212 39.542C43.6496 39.6842 43.7212 39.8976 43.6496 40.1109C43.578 40.3243 43.578 40.3243 43.4376 40.3954C43.3975 40.4153 43.366 40.4494 43.3402 40.4836C43.3145 40.5205 43.3001 40.5632 43.2944 40.6059C43.3374 40.8989 43.2887 41.1975 43.154 41.4592C43.1626 41.5588 43.1397 41.6584 43.0824 41.7437C43.0108 41.6726 43.0108 41.6726 43.0108 41.6015C43.0108 41.5304 42.7988 40.3925 42.4436 40.2503C42.0884 40.1081 42.3032 40.1081 42.372 40.2503C42.4436 40.3925 42.4436 40.677 42.4436 40.7481C42.4436 40.8192 42.0884 40.8903 42.0884 41.1748C42.0855 41.3511 42.1342 41.5247 42.2316 41.6726C42.2775 41.7465 42.3061 41.829 42.3176 41.9144C42.329 41.9997 42.3233 42.0879 42.3032 42.1704C42.3032 42.2415 42.2316 42.3837 42.16 42.2415C42.0569 42.0424 41.9394 41.8518 41.8048 41.6726C41.6673 41.4962 41.5498 41.3056 41.4496 41.1037L41.2347 40.9614C41.272 41.1975 41.272 41.4365 41.2347 41.6726C41.0915 41.8461 40.9712 42.0367 40.8795 42.2415C40.8108 42.3837 40.6675 42.7393 40.8108 42.7393C41.1975 42.8474 41.547 43.0664 41.8105 43.3708C42.0741 43.6723 42.246 44.0478 42.3004 44.446C42.4207 45.1657 42.5868 45.8797 42.796 46.5794V46.8639H42.7243V46.7217C42.6527 46.6505 42.1571 45.5838 41.5183 45.2994L41.2347 45.086C41.166 45.086 41.0944 45.0149 41.0944 45.1572V45.5838C41.0571 45.6493 41.0371 45.7232 41.0371 45.7972C41.0371 45.8711 41.0571 45.9451 41.0944 46.0105C41.0944 46.0816 41.2347 46.5083 41.4496 46.5794C41.6616 46.6505 41.9452 46.6505 42.16 46.8639C42.2316 46.935 42.6556 47.2195 42.7272 47.4328C42.7988 47.6461 42.7988 47.575 42.7272 47.575H42.5868C42.246 47.2849 41.822 47.1114 41.3808 47.0772C41.06 47.1114 40.7563 47.2251 40.4928 47.4129C40.2321 47.5978 40.023 47.8509 39.8884 48.1439C39.8884 48.215 39.8168 48.4284 39.8884 48.4284H41.948C42.0168 48.4995 42.0884 48.4995 42.2316 48.3573L42.6556 48.0017C42.7272 48.0017 42.8704 47.9306 42.7988 48.1439C42.7272 48.3573 42.6556 48.4284 42.3032 48.6417C42.0683 48.7043 41.8506 48.8209 41.6644 48.9831C41.4811 49.1424 41.335 49.3415 41.2376 49.5662C41.1259 49.7852 41.0772 50.0327 41.0972 50.2773C41.0972 50.3485 41.1689 50.6329 41.3808 50.4196C41.5928 50.2062 41.5212 50.1351 41.736 50.1351C41.948 50.1351 42.16 50.064 42.4465 49.8507L43.9389 49.0684L44.4345 48.9262C44.5061 48.9262 44.5778 48.9262 44.5061 48.9973C44.4345 49.0684 43.727 49.424 43.3001 51.0596C43.1512 51.5204 43.0566 51.9983 43.0165 52.4819L37.6196 54.0464C37.2271 54.1573 36.8204 54.2057 36.4136 54.1886H34.2852L33.5031 54.4019C33.357 54.456 33.231 54.5556 33.1479 54.6864C33.0333 54.803 32.9589 54.9509 32.9331 55.1131L15.0464 47.6461L38.1896 70.8292L15.0464 93.9412L71.339 70.8292L68.0017 78.9362H67.2913C66.9991 79.0073 66.7499 79.1865 66.5809 79.434C66.5121 79.5762 66.5121 79.5051 66.4405 79.434C66.4377 79.3117 66.4606 79.1894 66.5121 79.0784C66.5121 78.9362 66.6525 78.6546 66.6525 78.5095C66.6525 78.3673 66.3689 78.154 66.0853 78.0857C65.7473 78.154 65.4322 78.299 65.1629 78.5095L64.2405 78.8651L61.6136 79.2918H59.8376C59.6972 79.2207 59.6256 79.2918 59.554 79.3629C59.385 79.6815 59.2446 80.0143 59.1272 80.3585C58.9782 80.862 58.6803 81.3057 58.2764 81.6385L56.2196 82.8475C56.1479 82.9186 56.2196 82.9186 56.2196 82.9897L56.3599 83.277C56.6063 83.6297 56.7295 84.0536 56.7151 84.4859C56.7151 84.6993 56.6435 84.4859 56.5719 84.4148C56.4144 84.1901 56.274 83.9512 56.1479 83.7037C55.9245 83.2941 55.5779 82.9726 55.1539 82.7792C55.0136 82.7109 55.0852 82.7109 55.1539 82.7109C55.3315 82.6085 55.4776 82.4578 55.5808 82.2842C55.8558 82.0083 56.0935 81.6983 56.2912 81.3598C56.4029 81.2289 56.5576 81.1436 56.7266 81.1151C56.8985 81.0895 57.0704 81.1265 57.2136 81.2175C57.2737 81.2858 57.354 81.3342 57.4428 81.3598C57.5316 81.3854 57.6232 81.3854 57.712 81.3598C57.9269 81.2915 57.9269 80.862 57.9269 80.7197C57.9269 80.5775 57.0045 80.0086 56.8612 79.9375C56.718 79.8692 55.5836 80.7197 55.512 80.862C55.4404 81.0042 55.3716 80.862 55.3716 80.862C55.3716 80.862 55.3716 80.7197 55.3716 80.5064C55.3716 80.2931 56.0821 79.7953 56.3657 79.5819C56.6493 79.3714 57.5 78.3047 57.5 78.0174C57.4943 77.9093 57.4571 77.8041 57.3941 77.7187C57.331 77.6306 57.2451 77.5594 57.1448 77.5225C57.0761 77.5225 57.0761 77.6647 57.0761 77.7358C57.0761 77.8041 56.7925 78.0914 56.6493 78.2336C56.5089 78.3758 55.4433 78.8025 55.3716 78.8736C55.3 78.9447 54.8044 79.9403 54.8044 80.1537C54.8044 80.367 54.5896 80.2248 54.5208 80.2959C54.4492 80.367 54.094 80.0854 53.9536 80.0114C53.8391 79.9346 53.7102 79.8834 53.5727 79.8721C53.4352 79.8578 53.2977 79.8834 53.1716 79.9375C52.1747 80.2504 51.238 80.7311 50.4044 81.3598C49.9088 81.7153 47.0671 84.4177 46.9984 84.4916C46.6546 84.8842 46.2736 85.2397 45.864 85.5583L44.4431 86.5539C43.9275 86.7872 43.3431 86.8128 42.8103 86.625C42.3835 86.4828 42.4551 86.0561 42.4551 85.9139C42.4551 85.7717 43.0939 85.6266 43.4491 85.6266H43.8731L44.9387 85.0605C45.0934 84.9837 45.2653 84.9439 45.4371 84.9439C45.609 84.9439 45.778 84.9837 45.9327 85.0605C46.2163 85.1288 46.1447 84.9894 46.0731 84.9155C46.0015 84.8472 45.5775 84.4916 45.3627 84.4916C44.996 84.4888 44.635 84.5599 44.297 84.705C44.0822 84.7732 44.1538 84.5599 44.2254 84.4916C44.4317 84.2868 44.6723 84.1161 44.9358 83.9938C45.3627 83.7805 46.2851 84.0621 46.3567 84.0621C46.4283 84.0621 46.4999 84.1332 46.4999 84.0621C46.4999 83.9938 46.2163 83.7065 46.0731 83.5643C45.6004 83.368 45.0733 83.3424 44.5835 83.4932C44.2053 83.661 43.8673 83.9028 43.5895 84.2043C43.5178 84.2754 43.5178 84.2043 43.5178 84.136L43.7327 83.7094C44.0879 83.0693 43.9447 82.856 43.8731 82.7138C43.8014 82.5715 43.7241 82.7764 43.7241 82.7764C43.7241 82.7764 43.3689 83.203 43.2256 83.3453L42.0196 83.9881C41.8249 84.0934 41.6788 84.2726 41.61 84.4831C41.5441 84.6964 41.5642 84.9268 41.6644 85.126C41.6873 85.2084 41.6902 85.2966 41.6788 85.3848C41.6673 85.4673 41.6358 85.5526 41.5928 85.6237H41.5241C41.3952 85.8655 41.3264 86.1358 41.3264 86.406C41.3264 86.6762 41.3952 86.9465 41.5241 87.1882C41.8793 88.0416 43.0853 87.9677 43.3717 87.9677C44.8613 87.9677 46.8494 85.9054 46.9926 85.692C47.1359 85.4787 47.2046 85.692 47.2046 85.692C47.2046 85.692 47.2046 85.9054 47.1359 85.9765L46.3538 86.901C46.2134 87.0432 46.2134 87.5438 46.2134 87.6121C46.2134 87.6832 46.2851 87.6832 46.3538 87.6832C46.4254 87.6832 46.9926 87.4699 47.2762 87.0403C47.5484 86.5852 47.7174 86.076 47.7718 85.5498C47.7833 85.4047 47.8062 85.2625 47.8434 85.1231C47.895 84.9098 47.9895 84.7078 48.1241 84.5371C48.2588 84.3636 48.4307 84.2271 48.6255 84.1275C48.8403 83.9853 48.7687 84.1275 48.7687 84.1958L48.4851 84.5514C48.3419 84.6964 48.3419 85.1203 48.3419 85.4758C48.3533 85.7091 48.2788 85.9366 48.1299 86.1187C47.9895 86.2609 48.2015 86.2609 48.2731 86.2609C48.5281 86.1984 48.7544 86.0476 48.9119 85.8342L49.1955 85.4787H49.2671C49.4906 84.9098 49.6338 84.3096 49.694 83.7008C49.694 83.4875 50.2612 82.9897 50.4731 82.7764C51.1291 82.2444 51.8424 81.7921 52.6015 81.4252C53.2404 81.0696 53.5956 81.3541 53.6672 81.4252C53.7359 81.4963 53.8792 81.923 53.8076 82.1363C53.7359 82.3497 53.3836 82.4919 53.312 82.563L51.8195 83.1291L51.5359 83.4164C50.8198 83.9369 50.2382 84.6196 49.8315 85.4076L49.6166 85.9054C49.1898 87.0915 48.8317 88.3033 48.551 89.5293C47.958 89.5407 47.3879 89.7398 46.9181 90.0982C46.6804 90.3429 46.4197 90.559 46.139 90.7411L45.6434 91.0967C45.3942 91.1962 45.1306 91.2446 44.8613 91.2389C44.5777 91.2389 44.7926 91.0967 44.8613 91.0256C44.933 90.9544 45.5718 90.7411 45.6434 90.7411H45.715C46.139 90.596 46.2106 90.4538 46.2822 90.3144C46.5601 90.047 46.8207 89.7654 47.0614 89.4611C47.345 89.3188 47.2017 89.2477 47.133 89.2477H46.351C45.7522 89.4696 45.2337 89.865 44.8585 90.3855L44.2942 90.7411L44.0106 90.8833C43.8673 90.9516 43.8673 90.8122 43.9389 90.8122C44.0994 90.6899 44.2397 90.5448 44.3629 90.3884C44.9301 89.8877 44.7181 89.7455 44.7181 89.5322C44.6723 89.4383 44.6007 89.353 44.5147 89.2932C44.4288 89.2306 44.3285 89.1908 44.2197 89.1766C44.0764 89.1083 44.1481 89.2477 44.1481 89.3899C44.1481 89.5322 43.9361 89.9588 43.8645 90.0328C43.7928 90.1011 43.2256 90.6728 43.0137 90.8862H42.8733L42.2345 91.384C42.1629 91.4551 42.0913 91.384 42.0913 91.3129C42.0913 91.2446 42.2345 91.1024 42.3061 91.0284L42.5181 90.8862L42.8733 90.7439C42.9363 90.7013 42.9908 90.6472 43.028 90.5818C43.0681 90.5164 43.091 90.4424 43.0967 90.3685C43.1025 90.2945 43.0939 90.2149 43.0681 90.1466C43.0395 90.0783 42.9993 90.01 42.9421 89.9617L42.5868 89.535C42.5152 89.3928 42.4436 89.4667 42.372 89.535C42.3348 89.7825 42.2631 90.0214 42.16 90.2461L42.0168 90.4595L41.7332 90.8862C41.6616 91.0995 41.6616 91.2417 41.5899 91.2417C41.5556 91.566 41.4066 91.8732 41.166 92.0951C41.0228 92.2373 41.0944 92.0951 41.0944 92.024C41.1144 91.6684 41.0915 91.31 41.0228 90.9573C40.9855 90.8008 40.9082 90.6614 40.7936 90.5448C40.6819 90.4339 40.5386 90.3542 40.3811 90.3173C40.2407 90.2461 40.2407 90.4595 40.2407 90.5306C40.2808 90.6956 40.3037 90.8606 40.3123 91.0284C40.3811 91.1706 40.2407 91.4551 40.0975 91.7395C40.023 92.0411 40.023 92.3625 40.0975 92.664L40.3811 92.8774C40.4527 93.0196 40.5959 92.9456 40.6647 92.9456L41.5871 92.5901C42.521 92.1662 43.5608 92.0439 44.5692 92.2345C46.1304 92.6612 46.202 93.6568 46.202 93.799C46.2507 93.9384 46.2564 94.0863 46.2163 94.2228C46.1791 94.3651 46.0989 94.4874 45.9871 94.5812C45.8468 94.7946 45.9871 94.8657 46.0588 94.8657C46.1304 94.8884 46.2077 94.8941 46.2793 94.8799C46.3538 94.8657 46.4226 94.8373 46.4856 94.7974C46.8408 94.7263 47.1244 94.0863 47.196 93.8729C47.2676 93.6596 47.3392 93.8018 47.3392 93.8018C47.3392 93.8018 47.6945 94.3707 47.8348 94.5841L48.402 95.153C48.4736 95.2952 48.4736 95.2213 48.5452 95.153C48.5796 95.0108 48.6054 94.8685 48.614 94.7263C48.465 94.2399 48.1958 93.8018 47.8348 93.4463C47.7632 93.378 47.8348 93.378 47.8348 93.378H48.0468L48.8288 93.5913C49.0953 93.6084 49.3645 93.5572 49.608 93.4463C49.82 93.304 49.6796 93.2358 49.6796 93.2358L49.396 93.0907C49.0637 92.9115 48.7028 92.792 48.3304 92.7351C48.0382 92.6925 47.7403 92.7437 47.4796 92.8802L47.1244 93.0224H46.9812L47.1244 92.8802L47.7632 92.4535C48.0124 92.3653 48.2817 92.3426 48.5452 92.3824L49.6796 92.883C49.9546 92.9712 50.244 92.9968 50.5304 92.9513H50.6708L50.4588 93.2386L49.82 93.8047C49.7054 93.9128 49.5736 93.9924 49.4247 94.0436C49.2786 94.092 49.121 94.1062 48.9663 94.092C48.8947 94.092 48.8947 94.2342 48.8947 94.3764C48.932 94.7064 48.932 95.0392 48.8947 95.3749C48.8947 95.8727 48.3992 96.086 48.2559 96.1543H48.0411C47.9723 96.086 48.0411 96.0121 48.0411 95.9409C48.0955 95.8698 48.1213 95.7816 48.1213 95.6935C48.1213 95.6024 48.0926 95.5171 48.0411 95.4431C47.9294 95.1359 47.7002 94.8799 47.4023 94.732C47.259 94.6637 47.259 94.8031 47.1874 94.8031L47.0614 95.0079C46.8494 95.2184 46.4226 95.2184 46.2822 95.2924C46.1017 95.3038 45.9213 95.2753 45.7494 95.2156C45.5775 95.1558 45.4199 95.0591 45.2882 94.9368C45.1478 94.8657 45.2166 94.7946 45.2166 94.7946L45.5002 94.5812C45.6004 94.5215 45.6806 94.4362 45.7437 94.3366C45.8038 94.2371 45.8468 94.1261 45.8582 94.0095C45.8726 93.8957 45.8582 93.7762 45.821 93.6681C45.7838 93.5572 45.7207 93.4576 45.6405 93.3723C45.1449 92.3739 43.2973 92.5189 42.9421 92.5901C42.5868 92.6612 40.8136 93.4434 40.742 93.4434C40.6704 93.4434 40.6017 93.4434 40.6017 93.3752L40.1032 93.2329C39.7423 93.0935 39.3527 93.0452 38.9688 93.0878H38.7568C38.6165 93.159 38.6852 93.3751 38.7568 93.4434L39.2524 93.8701H39.748C39.9628 93.8701 39.8912 94.0123 39.8912 94.0834H39.2524C38.9803 94.1034 38.7167 94.1745 38.4732 94.2968L38.6852 94.5073L39.748 94.7235C39.8912 94.7235 39.8912 94.7946 39.8912 94.8657H39.6076L38.542 95.153L37.548 95.3663C37.2644 95.4346 37.4792 95.5768 37.548 95.5768H38.1868C38.7311 95.628 39.2811 95.6053 39.8196 95.5086H40.0345L40.1748 95.793L40.3181 95.9353L41.0285 97.147C41.2663 97.5026 41.3894 97.9236 41.3837 98.356C41.3837 98.7115 41.4553 98.7115 41.6673 98.7798C41.8592 98.831 42.0626 98.8054 42.2345 98.7115C42.4465 98.5693 42.3061 97.8582 42.3061 97.5737C42.3061 97.2892 42.5181 97.4315 42.5181 97.4315L43.2973 98.1426L43.5809 98.2848C43.6267 98.2536 43.6611 98.2109 43.6869 98.1597C43.7098 98.1085 43.7241 98.0544 43.7241 98.0004C43.6869 97.696 43.535 97.4144 43.2973 97.2181L43.1569 96.8569C43.154 96.6805 43.1053 96.5098 43.0137 96.3591C43.0137 96.288 42.9421 96.0035 42.9421 95.7902C42.9421 95.5768 43.0137 95.2213 43.0137 95.079C43.1598 94.5044 43.0853 93.8929 42.8017 93.3723L43.0137 93.6568C43.5809 94.1546 43.5809 95.2924 43.6525 95.4346L43.8645 95.5768C43.9389 95.5711 44.0134 95.5882 44.0764 95.628C44.1395 95.6679 44.191 95.7219 44.2197 95.793C44.5233 95.9722 44.7897 96.2169 44.9989 96.5042C45.4142 97.0133 45.864 97.4884 46.3481 97.9264C46.4913 98.0687 46.4197 98.1398 46.4197 98.1398C45.7121 98.9277 44.9272 99.6445 44.0764 100.273C43.9103 100.407 43.7843 100.583 43.7126 100.785C43.6382 100.984 43.6152 101.201 43.6525 101.414C43.6525 101.769 44.2197 102.193 44.3629 102.335C44.5061 102.481 47.4853 104.045 47.8406 104.327C48.4708 104.64 48.9893 105.135 49.333 105.749C49.5135 105.894 49.7398 105.968 49.9718 105.962C50.1122 106.033 50.1122 105.962 50.1838 105.891V105.248C50.1838 104.964 50.3242 105.177 50.3242 105.177C50.3242 105.177 50.4674 105.391 50.539 105.533C50.6078 105.678 50.751 105.82 50.8226 105.888L51.533 106.176C51.8166 106.244 51.8883 106.176 51.8883 106.105C51.8883 106.036 51.8166 105.536 51.7479 105.393L51.3927 104.113C51.3755 104.054 51.3383 103.997 51.2867 103.957C51.2351 103.917 51.1721 103.897 51.1062 103.9H50.4674C50.3242 103.9 50.3242 104.466 50.3242 104.611C50.3242 104.753 50.2554 104.679 50.1838 104.611C50.1122 104.54 50.1122 104.324 50.0406 104.256C50.0148 103.971 49.9174 103.707 49.757 103.473C49.545 103.118 49.0466 103.331 49.0466 103.331H48.9033L48.4794 102.973C47.8262 102.609 47.2275 102.153 46.7033 101.619C46.5457 101.454 46.351 101.331 46.1361 101.263H44.6465C44.2913 101.263 44.5777 101.121 44.6465 101.053C44.8212 100.885 45.0475 100.785 45.2853 100.765L47.2017 100.623L47.7689 100.481C48.5051 100.376 49.207 100.105 49.8286 99.6986C50.3958 99.4141 50.0406 99.4141 50.0406 99.4141H49.6166C48.8575 99.3601 48.1242 99.1183 47.4853 98.703C47.1301 98.5608 47.4166 98.4897 47.4853 98.4897H47.9122C48.4049 98.5892 48.9033 98.6632 49.4046 98.703C50.2182 98.8139 51.0461 98.6404 51.7479 98.2052L52.3151 97.9919C52.7419 97.9207 52.8135 98.1341 52.8135 98.2763L53.6643 99.4141C54.3604 100.381 54.9305 101.434 55.3688 102.543C55.5808 103.084 55.6753 103.67 55.6524 104.253C55.6524 104.395 55.6524 104.463 55.7927 104.537C55.936 104.608 56.0047 104.466 56.0763 104.395C56.148 104.324 56.1479 104.039 56.2196 103.968C56.2883 103.9 56.4315 103.9 56.4315 103.9V104.11C56.4315 104.256 56.3599 104.466 56.3599 104.537C56.3599 104.608 56.7868 105.177 56.8584 105.319C56.9271 105.462 56.9271 105.462 56.9987 105.462L48.1958 127.22L71.339 103.965L94.4794 127.22L87.2405 109.586L87.6645 109.373C87.8249 109.231 87.951 109.054 88.0369 108.858C88.1228 108.662 88.1658 108.446 88.1601 108.232C88.1601 107.948 88.0913 106.81 88.0913 106.17C88.0799 105.74 88.1286 105.305 88.2317 104.89C88.3033 104.677 89.7929 99.6275 89.7929 99.4852C90.4632 99.434 91.1307 99.3146 91.7809 99.1297C92.3797 98.9505 92.9067 98.575 93.2706 98.063C93.3422 97.9207 93.3422 98.063 93.3422 98.063C93.3422 98.063 93.2706 98.4185 93.2018 98.6319C93.1044 98.7855 93.0328 98.9533 92.987 99.1297L92.4198 100.128C92.2078 100.413 92.2078 100.697 92.1362 100.768C92.0674 100.839 91.9242 101.124 91.8526 101.195C91.781 101.263 91.9213 101.408 91.9929 101.479C92.119 101.499 92.2479 101.494 92.3711 101.454C92.4942 101.417 92.6088 101.354 92.7005 101.266C92.9211 101.183 93.1159 101.047 93.2763 100.873C93.4367 100.7 93.557 100.495 93.6258 100.27C93.8377 99.9148 94.0526 99.7725 94.1213 99.7725C94.193 99.7725 94.2646 99.8408 94.2646 99.9148L93.9094 100.341C93.769 100.484 93.8377 100.552 93.8377 100.626C93.8463 101.149 93.8234 101.67 93.769 102.19C93.7575 102.335 93.7346 102.478 93.6974 102.617H93.981C94.2732 102.5 94.5252 102.307 94.7114 102.057C94.8976 101.804 95.0151 101.508 95.0437 101.195C95.0237 100.745 94.849 100.316 94.5482 99.9859V99.8437H94.7602C94.9034 99.9148 95.187 100.344 95.2557 100.344C95.3273 100.344 95.4706 100.984 95.5393 101.055C95.6109 101.124 96.0378 101.411 96.1065 101.479C96.1781 101.55 96.3901 101.55 96.5333 101.479H96.9573C97.1005 101.479 97.0289 101.337 97.0289 101.337L96.8169 101.053C96.4732 100.518 95.9805 100.097 95.3961 99.8408C95.1841 99.7725 95.2529 99.6986 95.2529 99.6986C95.2529 99.6986 95.4677 99.7697 95.5365 99.7697L97.6677 100.267C98.0688 100.313 98.4469 100.478 98.7506 100.748C99.0542 101.016 99.2719 101.368 99.3693 101.761H99.8649L100.432 101.405C100.687 101.334 100.959 101.334 101.211 101.405L101.071 101.192C100.719 100.91 100.34 100.674 99.9365 100.481C99.7962 100.339 99.9365 100.339 100.008 100.339C100.103 100.31 100.2 100.299 100.3 100.313C100.401 100.327 100.492 100.359 100.578 100.407H101.074C101.357 100.478 101.429 100.122 101.501 100.122H101.996C102.137 100.191 102.065 100.051 101.996 100.051C101.925 100.051 100.79 99.4824 100.647 99.4824H100.507L100.79 99.3402C101.065 99.2435 101.352 99.1951 101.641 99.198C101.658 99.2093 101.678 99.2179 101.701 99.2207C101.721 99.2236 101.744 99.2207 101.764 99.215C101.784 99.2093 101.804 99.198 101.819 99.1809C101.833 99.1638 101.844 99.1467 101.853 99.124C101.879 99.0671 101.916 99.0187 101.968 98.9789C102.019 98.9419 102.076 98.9192 102.139 98.9135C102.354 98.7684 102.638 98.9135 102.707 98.8424L102.566 98.629C102.354 98.4868 102.354 98.1312 102.354 98.0601C102.354 97.9919 102.139 97.8496 102.139 97.8496H101.572L101.148 97.9919L100.721 98.2052L100.226 98.629C99.1602 99.4113 97.811 98.7713 97.2438 98.629C96.5018 98.3133 95.7914 97.9321 95.1154 97.4941C94.9034 97.349 94.6914 97.4941 94.6914 97.5623C94.1958 97.6818 93.6802 97.6533 93.1989 97.4941C93.0557 97.4229 93.2677 97.349 93.3393 97.349C93.4109 97.349 94.0497 96.214 94.1185 96.0718C94.1156 96.032 94.1185 95.995 94.1328 95.9552C94.1443 95.921 94.1643 95.8869 94.1901 95.8585C94.3133 95.3777 94.5596 94.9397 94.9005 94.5784C95.3245 94.0806 95.7513 94.2228 95.9662 94.1517C96.1781 94.0834 96.1065 94.2228 96.0378 94.2228L95.7542 94.3651C95.0438 94.8629 95.1154 94.934 95.0437 95.1473C94.8375 95.3379 94.6885 95.5825 94.6198 95.8585C94.4909 96.1315 94.3964 96.416 94.3362 96.7118C94.193 97.0674 94.3362 97.0674 94.3362 97.0674C94.594 97.0446 94.8404 96.9451 95.0466 96.7829C95.3102 96.5098 95.525 96.1998 95.6854 95.8585C95.757 95.5712 95.8974 95.3607 95.8974 95.2895C96.0521 95.0677 96.2154 94.8543 96.393 94.6495C96.5362 94.5044 96.5362 94.7917 96.5362 94.86L96.2526 95.2156C96.1294 95.4033 96.0779 95.6309 96.1094 95.8585V96.7147C96.0406 96.9991 96.1094 96.928 96.181 96.928C96.2526 96.928 96.4646 96.8569 96.7482 96.6407C96.9201 96.3989 97.0633 96.1344 97.175 95.8613C97.2438 95.574 97.387 95.2924 97.387 95.2184C97.387 95.1501 97.9542 94.5073 98.1662 94.439L98.0258 94.6524C97.9342 94.7462 97.8597 94.8572 97.811 94.9795C97.7623 95.1018 97.7394 95.2298 97.7422 95.3635C97.7422 95.5057 97.6706 95.648 97.6706 95.8613C97.6763 96.0519 97.6534 96.2453 97.599 96.4302C97.5302 96.7858 97.599 96.7147 97.6706 96.7147H98.0946C98.381 96.6435 98.593 96.288 98.7334 95.9324C98.8766 95.5768 98.9454 95.2213 99.017 95.0108C99.0915 94.7007 99.2662 94.4248 99.5126 94.2285C99.5842 94.2996 99.5842 94.4419 99.5842 94.6552C99.5842 94.8629 99.5097 95.0677 99.3722 95.2213C99.2519 95.4431 99.1831 95.6821 99.1602 95.9324V96.1457C99.1602 96.3591 99.4438 96.2169 99.4438 96.2169L99.7274 95.9296L99.9394 95.5057C100.083 95.0193 100.131 94.513 100.08 94.0123H100.151C100.223 94.0123 100.223 94.1546 100.223 94.2257L100.647 95.0079C100.862 95.4318 101.214 95.3635 101.357 95.4318C101.501 95.5029 101.429 95.3635 101.429 95.2895L101.286 95.0762C101.191 94.5386 101.143 93.9896 101.145 93.4406C101.145 93.085 100.79 92.9428 100.647 92.8745C100.507 92.8034 100.578 92.8034 100.647 92.8034C100.719 92.8034 100.79 92.7323 100.862 92.6612H101.145C101.784 92.6612 102.139 92.4478 102.139 92.3739C102.139 92.3056 102.423 92.0183 102.423 91.95L102.139 91.8078H101.927C101.672 91.7367 101.4 91.7367 101.148 91.8078H100.936L101.22 91.6627C101.363 91.5205 101.291 91.1649 101.291 91.0227C101.148 90.2803 100.805 89.5891 100.297 89.0315C100.226 88.9519 100.123 88.9007 100.014 88.8893L99.5154 89.1026C99.2318 89.2449 99.3034 89.0315 99.3751 88.9604H99.5154L99.9422 88.5337C100.057 88.4399 100.146 88.3175 100.209 88.1838C100.269 88.0473 100.3 87.8994 100.297 87.7515C100.438 87.3959 100.226 87.3959 100.154 87.3959L99.3034 87.541C99.0915 87.6832 98.8079 88.107 98.6646 88.107C98.5214 88.107 98.4498 88.1782 98.4498 88.0388L98.6646 87.7515C98.805 87.541 98.4498 87.3276 98.381 87.2537C98.0373 86.9578 97.7279 86.6222 97.4586 86.2581C97.3154 86.0447 97.175 86.4003 97.175 86.4714C97.1292 86.6193 97.1235 86.7758 97.1636 86.9266C97.2037 87.0773 97.281 87.2167 97.3899 87.3248C97.513 87.5495 97.6104 87.7885 97.6735 88.0359C97.7451 88.2493 97.4615 87.9648 97.3899 87.8226C97.0977 87.5239 96.7912 87.2366 96.4675 86.9692C96.2097 86.7559 95.8773 86.6563 95.5451 86.6819C95.1898 86.6819 95.4047 86.827 95.4047 86.8953L95.7599 87.3931L96.6107 88.3175C96.8943 88.6048 96.6107 88.5309 96.5391 88.5309L95.8287 88.2464C95.568 88.1127 95.3302 87.9477 95.1182 87.7458C94.9922 87.6434 94.8375 87.5723 94.6771 87.5523C94.5138 87.5239 94.3477 87.5467 94.1958 87.6064C93.9122 87.6064 94.0555 87.6775 94.1242 87.7486L94.4794 88.3175C94.7745 88.6162 95.1411 88.8381 95.5451 88.9604H95.8315C95.6883 89.1026 95.6167 89.1026 95.4047 89.1026L94.6255 88.8153L94.0583 88.5309C93.8549 88.383 93.62 88.2863 93.3737 88.2493C93.1273 88.2123 92.8752 88.2351 92.6375 88.3147C92.2106 88.3858 92.3539 88.4569 92.4226 88.528C92.4942 88.5991 92.5659 88.7414 92.7062 88.8836L92.9211 89.0258C93.5198 89.333 94.17 89.5265 94.8375 89.5947C95.1927 89.5947 94.9779 89.6659 94.9091 89.737L94.1987 89.8792C93.5943 89.7967 93.0013 89.6545 92.4226 89.4554C92.0474 89.3586 91.6492 89.3842 91.2882 89.5236C91.0046 89.5947 91.1479 89.6687 91.2195 89.6687L91.7151 90.0243C92.2765 90.3998 92.901 90.6643 93.5627 90.8037C93.918 90.8748 93.7031 90.9459 93.5627 90.9459H92.4255C91.8812 90.8748 91.3283 90.8975 90.7927 91.017C90.4374 91.1592 90.5807 91.1592 90.6523 91.2304L91.2911 91.5859C91.5059 91.6542 91.3627 91.7282 91.3627 91.7282C90.9244 91.7879 90.4804 91.7111 90.0851 91.5148C89.813 91.3185 89.5723 91.0768 89.3747 90.8037C89.2343 90.5903 89.3747 90.5903 89.3747 90.5903C90.0335 90.7724 90.7354 90.724 91.3627 90.4481C91.5059 90.4481 91.4343 90.3798 91.3627 90.3059C91.0447 90.0698 90.6838 89.8991 90.2971 89.8081C89.9419 89.737 90.1539 89.5947 90.1539 89.5947C90.4632 89.3871 90.7984 89.2193 91.1479 89.0969C91.3599 89.0258 91.2882 88.9547 91.2195 88.8836H91.0763L90.3658 88.1014C89.515 87.248 88.1629 84.3352 88.0942 84.1218L87.8793 83.6951C87.2577 82.5459 86.4413 81.5077 85.4673 80.6372C84.7884 80.1508 84.015 79.8095 83.1957 79.6417C82.8405 79.5705 82.9121 79.4283 82.9837 79.2861C83.0525 79.1439 83.6225 79.0727 83.6941 79.0727C84.31 79.1751 84.9087 79.3686 85.4702 79.6417C86.533 80.33 87.4697 81.1976 88.2374 82.2018C88.4952 82.6796 88.6184 83.2201 88.5926 83.7663C88.5926 83.7663 88.6642 84.1218 88.6642 84.1901C88.7015 84.4546 88.8075 84.705 88.9679 84.9155C89.1283 85.1288 89.3403 85.2966 89.5838 85.4019C89.727 85.4701 89.6554 85.3308 89.5838 85.1885V83.9796C89.5952 83.88 89.5695 83.7776 89.515 83.6923V83.4078C89.4434 83.2656 89.515 83.2656 89.5838 83.3367C89.6554 83.4078 89.727 83.5501 89.7986 83.6923V83.9142C90.0078 84.3864 90.1281 84.8927 90.1539 85.4076C90.2971 86.4032 90.5091 86.6165 90.7239 86.8298C90.8242 87.009 90.9703 87.1541 91.1479 87.2537H91.2882C91.3255 86.9692 91.3255 86.6848 91.2882 86.4003C91.2166 85.7205 90.9445 85.0776 90.5091 84.5514C90.4374 84.4091 90.5807 84.4831 90.5807 84.4831C90.7841 84.6367 90.9531 84.8301 91.0763 85.052C91.3742 85.564 91.7323 86.0419 92.1419 86.4743C92.5172 86.864 93.0299 87.0972 93.5713 87.1228C94.1099 87.1484 94.6427 86.9664 95.0552 86.6165C95.2701 86.4515 95.4362 86.2325 95.5336 85.9822C95.6339 85.7318 95.6654 85.4559 95.6224 85.1942C95.6138 84.9069 95.5136 84.6367 95.3388 84.412C95.2414 84.264 95.1927 84.0934 95.1984 83.9142V83.7008C95.1984 83.5586 95.1268 83.4875 95.1268 83.4164C95.1268 83.3453 94.7029 82.7735 94.6312 82.6341C94.1557 82.2871 93.726 81.8803 93.3536 81.4252C93.282 81.3484 93.2276 81.2574 93.1903 81.1635C93.1531 81.0639 93.1359 80.9615 93.1416 80.8563C93.1416 80.714 92.9984 80.788 92.9984 80.8563C92.944 80.9132 92.901 80.9786 92.8781 81.0525C92.8552 81.1237 92.8466 81.2062 92.858 81.283C92.7864 81.8519 93.4252 82.4919 93.4969 82.6341H93.2018L92.0674 81.4991C91.9385 81.3711 91.7724 81.2915 91.5919 81.2659C91.4114 81.2375 91.2309 81.2716 91.0705 81.3541C90.7927 81.3939 90.5263 81.4906 90.2914 81.6414C89.7958 81.8547 90.2197 81.9258 90.2914 81.9258L90.7182 82.1392C91.1393 82.4435 91.5919 82.7052 92.0674 82.9214L92.8466 83.0636C92.9669 83.0608 93.0843 83.1063 93.176 83.1831C93.2677 83.2599 93.3278 83.3709 93.345 83.4875C93.4883 83.7008 93.345 83.6326 93.2734 83.6326L92.8495 83.4192C92.4971 83.3453 92.1362 83.3453 91.7838 83.4192C91.357 83.5614 91.7838 83.6326 91.7838 83.6326L92.139 83.7748L92.3539 83.917L93.3479 84.7704C93.5713 84.9439 93.8492 85.0179 94.1271 84.9837C94.4823 85.0548 94.3419 85.5526 94.2703 85.5526C94.1987 85.5526 93.7031 85.9765 93.5599 85.9765C93.4166 85.9765 91.357 84.412 91.2882 84.2697L90.7927 83.7719C89.9419 82.7052 88.309 80.8563 88.097 80.6401C86.6762 79.0073 85.6106 78.5778 85.5418 78.5778C84.8858 78.2336 84.1467 78.0828 83.4105 78.1511C83.1269 78.1511 82.5597 78.6518 82.4881 78.72C82.4194 78.7911 82.3478 78.5778 82.3478 78.5067C82.4595 78.245 82.6228 78.006 82.8319 77.8126C83.041 77.6192 83.2845 77.4656 83.5538 77.3717C83.7657 77.2295 83.5538 77.1584 83.4821 77.1584C83.2387 77.0446 82.9694 76.9962 82.703 77.0161C82.6056 77.0247 82.511 77.0588 82.4251 77.1043C82.3392 77.1555 82.2647 77.2181 82.2045 77.2977C82.0871 77.4485 82.004 77.6192 81.9553 77.8041C81.9066 77.989 81.8951 78.1796 81.9209 78.3645C81.9209 78.5778 81.8522 78.5067 81.8522 78.4356L81.56 78.2251C81.3767 78.0203 81.1246 77.8923 80.8496 77.8695C80.7092 77.7984 80.354 77.9406 80.2824 77.9406C80.2107 77.9406 80.142 78.0089 80.142 78.0828L80.4256 78.2251C80.7092 78.2962 80.9212 78.794 81.0644 79.0073C81.2076 79.2178 81.5629 79.929 81.6316 80.074C81.7118 80.2134 81.8235 80.3329 81.961 80.4182C82.0957 80.5036 82.2532 80.5576 82.4136 80.5718C82.6256 80.6401 82.4824 80.7852 82.4136 80.8563C82.2274 81.0269 82.1043 81.2517 82.0584 81.4991C81.8952 81.8803 81.8207 82.2928 81.8465 82.7081C81.8465 82.9925 81.7032 82.7081 81.7032 82.7081C81.6373 82.381 81.6116 82.0453 81.6316 81.7096C81.6431 81.4878 81.5944 81.2659 81.4912 81.0696C81.4196 80.9274 81.136 80.7852 81.0644 80.7141C80.6662 80.3158 80.3311 79.8607 80.0704 79.3629C79.9988 79.1495 79.7868 79.2918 79.7868 79.2918C79.7868 79.2918 79.4316 79.5762 79.36 79.7185C79.2912 79.8607 79.2196 80.074 79.2196 80.1423C79.2196 80.2134 79.0076 80.1423 79.0076 80.074C78.7784 79.6616 78.704 79.1837 78.7928 78.72C78.9016 78.464 79.105 78.2621 79.36 78.1511C79.5032 78.0089 79.2912 78.0089 79.2196 78.0089H78.936C78.7985 78.0828 78.6753 78.1852 78.5779 78.3047C78.4805 78.4242 78.4089 78.5664 78.3688 78.72C78.2256 78.9334 78.2256 78.7911 78.2256 78.72C78.1912 78.4612 78.1912 78.1966 78.2256 77.9406C78.3144 77.6448 78.4318 77.3575 78.5808 77.0844C78.5808 76.9422 78.3688 77.0161 78.2972 77.0844C78.2256 77.1555 78.0136 77.3717 77.8732 77.585C77.73 77.7955 77.942 78.5067 77.942 78.6518C77.9935 78.8338 78.0164 79.0301 78.0136 79.2178C78.0136 79.4312 77.8016 78.9334 77.73 78.8623C77.5409 78.3758 77.2745 77.9207 76.9508 77.5111C76.8592 77.3945 76.7388 77.3063 76.6013 77.2551C76.4638 77.2039 76.312 77.1953 76.1716 77.2266C75.9568 77.2266 76.0284 77.2949 76.0284 77.3689H76.2404L76.5956 77.7927C76.862 78.1653 77.0769 78.5721 77.2344 79.0045C77.3748 79.215 77.2344 79.1467 77.0912 79.1467L76.736 79.0045H76.3091L75.6675 78.794L74.8883 78.2251C74.7938 78.1653 74.6878 78.1255 74.5789 78.1141C74.4672 78.0999 74.3555 78.1141 74.2495 78.154L71.339 71.1137L127.632 94.0123Z" fill="white"></path><path d="M210.49 57.4856L231.98 56.3392C229.923 43.0552 218.949 38.703 199.286 38.9334C178.71 39.1638 169.566 46.9494 169.337 58.8595C168.878 82.6798 213.461 72.8291 211.859 84.5117C210.716 92.758 188.767 91.6117 187.854 83.1377L166.363 84.0537C166.363 86.3436 166.363 103.522 197.914 103.522C231.751 103.522 232.665 87.9479 232.891 82.2218C234.034 59.5507 190.598 67.3363 190.598 57.2609C190.598 50.3884 209.573 50.8493 210.258 57.7188" fill="#C8102E"></path><path d="M238.154 42.828L258.501 41.4541V56.8005H266.273V68.941H258.501V80.6207C258.501 87.9483 266.731 87.2599 266.731 87.2599V101.232H260.103C256.903 101.232 238.841 98.2541 238.383 80.6207C238.383 70.3121 238.383 43.0584 238.383 43.0584" fill="#C8102E"></path><path d="M288.909 87.4894V101.231H298.511C303.083 101.231 323.431 97.7952 323.431 80.3894C323.431 62.9836 323.431 41.6836 323.431 41.6836L301.482 43.0575V80.3894C301.711 87.0314 293.481 87.4894 291.424 87.4894H288.909Z" fill="#C8102E"></path><path d="M349.951 76.956C349.951 83.6009 354.523 88.869 362.982 88.869C371.438 88.869 376.013 83.6009 376.013 76.956C376.013 70.3169 371.438 65.0459 362.982 65.0459C354.067 65.0459 349.951 70.314 349.951 76.956ZM328.231 76.956C328.231 63.6748 339.658 52.9082 362.753 52.9082C386.529 52.9082 397.048 63.4444 397.048 76.956C397.048 90.4705 384.931 101.234 362.753 101.234C338.289 101.234 328.231 90.4705 328.231 76.956Z" fill="#C8102E"></path><path d="M422.423 101.231V76.9532C422.423 76.9532 422.879 67.3358 433.853 67.3358C444.369 67.3358 443.455 76.9532 443.455 76.9532V101.231H464.49V71.23C464.49 71.23 466.092 54.2821 441.631 53.5937C429.281 53.5937 422.426 60.6937 422.426 60.6937V41.6836L401.85 42.8299V101.231H422.423Z" fill="#C8102E"></path><path d="M470.208 57.0252L491.24 55.4237V60.6918C491.24 60.6918 498.098 53.5918 509.983 53.5918C532.845 53.5918 532.845 71.4556 532.845 71.228V101.23H512.043V77.1817C512.043 77.1817 512.043 67.7918 501.979 67.5642C491.695 67.5642 491.008 76.9513 491.008 76.9513V101.23H469.976V57.0252H470.208Z" fill="#C8102E"></path></g><defs><clipPath id="clip0_562_74"><rect width="532" height="142" fill="white" transform="translate(0.845703)"></rect></clipPath></defs></svg>